<svg width="47" height="47" viewBox="0 0 47 47" fill="none" xmlns="http://www.w3.org/2000/svg">
<g filter="url(#filter0_d_1_1489)">
<rect x="5.51038" y="2.01764" width="36" height="36" rx="18" fill="#396CF0" fill-opacity="0.1" shape-rendering="crispEdges"/>
<rect x="6.01038" y="2.51764" width="35" height="35" rx="17.5" stroke="#396CF0" stroke-opacity="0.1" shape-rendering="crispEdges"/>
<path d="M29.6964 20.0126C29.2766 19.0426 28.747 18.2026 28.1074 17.4926C27.4678 16.7826 26.7533 16.2351 25.9638 15.8501C25.1743 15.4651 24.3548 15.2726 23.5054 15.2726C22.6559 15.2726 21.8364 15.4651 21.0469 15.8501C20.2575 16.2351 19.5429 16.7826 18.9033 17.4926C18.2637 18.2026 17.7341 19.0426 17.3144 20.0126C17.2344 20.1826 17.2344 20.3526 17.3144 20.5226C17.7341 21.4926 18.2637 22.3326 18.9033 23.0426C19.5429 23.7526 20.2575 24.3001 21.0469 24.6851C21.8364 25.0701 22.6559 25.2626 23.5054 25.2626C24.3548 25.2626 25.1743 25.0701 25.9638 24.6851C26.7533 24.3001 27.4678 23.7526 28.1074 23.0426C28.747 22.3326 29.2766 21.4926 29.6964 20.5226C29.7763 20.3526 29.7763 20.1826 29.6964 20.0126ZM23.5054 24.0176C22.516 24.0176 21.5816 23.6826 20.7022 23.0126C19.8227 22.3426 19.1132 21.4276 18.5735 20.2676C19.1132 19.1076 19.8227 18.1926 20.7022 17.5226C21.5816 16.8526 22.516 16.5176 23.5054 16.5176C24.4947 16.5176 25.4291 16.8526 26.3086 17.5226C27.188 18.1926 27.8975 19.1076 28.4372 20.2676C27.8975 21.4276 27.188 22.3426 26.3086 23.0126C25.4291 23.6826 24.4947 24.0176 23.5054 24.0176ZM23.5054 17.7626C23.0557 17.7626 22.6384 17.8751 22.2537 18.1001C21.8689 18.3251 21.5641 18.6301 21.3393 19.0151C21.1144 19.4001 21.002 19.8176 21.002 20.2676C21.002 20.7176 21.1144 21.1351 21.3393 21.5201C21.5641 21.9051 21.8689 22.2101 22.2537 22.4351C22.6384 22.6601 23.0557 22.7726 23.5054 22.7726C23.9551 22.7726 24.3723 22.6601 24.7571 22.4351C25.1418 22.2101 25.4466 21.9051 25.6715 21.5201C25.8963 21.1351 26.0087 20.7176 26.0087 20.2676C26.0087 19.8176 25.8963 19.4001 25.6715 19.0151C25.4466 18.6301 25.1418 18.3251 24.7571 18.1001C24.3723 17.8751 23.9551 17.7626 23.5054 17.7626ZM23.5054 21.5126C23.1656 21.5126 22.8733 21.3901 22.6284 21.1451C22.3836 20.9001 22.2612 20.6076 22.2612 20.2676C22.2612 19.9276 22.3836 19.6351 22.6284 19.3901C22.8733 19.1451 23.1656 19.0226 23.5054 19.0226C23.8451 19.0226 24.1375 19.1451 24.3823 19.3901C24.6271 19.6351 24.7496 19.9276 24.7496 20.2676C24.7496 20.6076 24.6271 20.9001 24.3823 21.1451C24.1375 21.3901 23.8451 21.5126 23.5054 21.5126Z" fill="#396CF0"/>
</g>
<defs>
<filter id="filter0_d_1_1489" x="0.510376" y="0.0176392" width="46" height="46" filterUnits="userSpaceOnUse" color-interpolation-filters="sRGB">
<feFlood flood-opacity="0" result="BackgroundImageFix"/>
<feColorMatrix in="SourceAlpha" type="matrix" values="0 0 0 0 0 0 0 0 0 0 0 0 0 0 0 0 0 0 127 0" result="hardAlpha"/>
<feOffset dy="3"/>
<feGaussianBlur stdDeviation="2.5"/>
<feComposite in2="hardAlpha" operator="out"/>
<feColorMatrix type="matrix" values="0 0 0 0 0.223529 0 0 0 0 0.423529 0 0 0 0 0.941176 0 0 0 0.3 0"/>
<feBlend mode="normal" in2="BackgroundImageFix" result="effect1_dropShadow_1_1489"/>
<feBlend mode="normal" in="SourceGraphic" in2="effect1_dropShadow_1_1489" result="shape"/>
</filter>
</defs>
</svg>
