<svg width="47" height="47" viewBox="0 0 47 47" fill="none" xmlns="http://www.w3.org/2000/svg">
<g filter="url(#filter0_d_1_1495)">
<rect x="5.95032" y="2.01764" width="36" height="36" rx="18" fill="#F0735A" fill-opacity="0.1" shape-rendering="crispEdges"/>
<rect x="6.45032" y="2.51764" width="35" height="35" rx="17.5" stroke="#F0735A" stroke-opacity="0.1" shape-rendering="crispEdges"/>
<path d="M26.2653 17.9427C26.1453 17.8127 25.9953 17.7477 25.8153 17.7477C25.6353 17.7477 25.4853 17.8127 25.3653 17.9427L23.9403 19.3827L22.5153 17.9427C22.3953 17.8227 22.2453 17.7627 22.0653 17.7627C21.8853 17.7627 21.7353 17.8227 21.6153 17.9427C21.4953 18.0627 21.4353 18.2127 21.4353 18.3927C21.4353 18.5727 21.4953 18.7227 21.6153 18.8427L23.0553 20.2677L21.6153 21.6927C21.4853 21.8127 21.4203 21.9627 21.4203 22.1427C21.4203 22.3227 21.4828 22.4752 21.6078 22.6002C21.7328 22.7252 21.8853 22.7877 22.0653 22.7877C22.2453 22.7877 22.3953 22.7227 22.5153 22.5927L23.9403 21.1527L25.3653 22.5927C25.4853 22.7227 25.6353 22.7877 25.8153 22.7877C25.9953 22.7877 26.1478 22.7252 26.2728 22.6002C26.3978 22.4752 26.4603 22.3227 26.4603 22.1427C26.4603 21.9627 26.3953 21.8127 26.2653 21.6927L24.8253 20.2677L26.2653 18.8427C26.3953 18.7227 26.4603 18.5727 26.4603 18.3927C26.4603 18.2127 26.3953 18.0627 26.2653 17.9427ZM28.3653 15.8427C27.5653 15.0427 26.6203 14.4977 25.5303 14.2077C24.4703 13.9377 23.4103 13.9377 22.3503 14.2077C21.2603 14.4977 20.3153 15.0427 19.5153 15.8427C18.7153 16.6427 18.1703 17.5877 17.8803 18.6777C17.6103 19.7377 17.6103 20.7977 17.8803 21.8577C18.1703 22.9477 18.7153 23.8927 19.5153 24.6927C20.3153 25.4927 21.2603 26.0377 22.3503 26.3277C23.4103 26.5977 24.4703 26.5977 25.5303 26.3277C26.6203 26.0377 27.5653 25.4927 28.3653 24.6927C29.1653 23.8927 29.7103 22.9477 30.0003 21.8577C30.2703 20.7977 30.2703 19.7377 30.0003 18.6777C29.7103 17.5877 29.1653 16.6427 28.3653 15.8427ZM27.4803 23.8077C26.9303 24.3677 26.2878 24.7702 25.5528 25.0152C24.8178 25.2602 24.0678 25.3352 23.3028 25.2402C22.5378 25.1452 21.8278 24.8802 21.1728 24.4452C20.5178 24.0102 19.9978 23.4577 19.6128 22.7877C19.2278 22.1177 19.0078 21.3977 18.9528 20.6277C18.8978 19.8577 19.0203 19.1102 19.3203 18.3852C19.6203 17.6602 20.0603 17.0427 20.6403 16.5327C21.2203 16.0227 21.8828 15.6652 22.6278 15.4602C23.3728 15.2552 24.1303 15.2277 24.9003 15.3777C25.6703 15.5277 26.3603 15.8402 26.9703 16.3152C27.5803 16.7902 28.0603 17.3727 28.4103 18.0627C28.7603 18.7527 28.9353 19.4877 28.9353 20.2677C28.9353 20.9277 28.8103 21.5652 28.5603 22.1802C28.3103 22.7952 27.9503 23.3377 27.4803 23.8077Z" fill="#F0735A"/>
</g>
<defs>
<filter id="filter0_d_1_1495" x="0.950317" y="0.0176392" width="46" height="46" filterUnits="userSpaceOnUse" color-interpolation-filters="sRGB">
<feFlood flood-opacity="0" result="BackgroundImageFix"/>
<feColorMatrix in="SourceAlpha" type="matrix" values="0 0 0 0 0 0 0 0 0 0 0 0 0 0 0 0 0 0 127 0" result="hardAlpha"/>
<feOffset dy="3"/>
<feGaussianBlur stdDeviation="2.5"/>
<feComposite in2="hardAlpha" operator="out"/>
<feColorMatrix type="matrix" values="0 0 0 0 0.941176 0 0 0 0 0.45098 0 0 0 0 0.352941 0 0 0 0.3 0"/>
<feBlend mode="normal" in2="BackgroundImageFix" result="effect1_dropShadow_1_1495"/>
<feBlend mode="normal" in="SourceGraphic" in2="effect1_dropShadow_1_1495" result="shape"/>
</filter>
</defs>
</svg>
