<svg width="66" height="65" viewBox="0 0 66 65" fill="none" xmlns="http://www.w3.org/2000/svg">
<rect x="0.310059" width="65" height="65" rx="10" fill="#396CF0" fill-opacity="0.05"/>
<path d="M30.32 39.24H31.55V40.5C31.55 40.84 31.675 41.135 31.925 41.385C32.175 41.635 32.47 41.76 32.81 41.76C33.15 41.76 33.445 41.635 33.695 41.385C33.945 41.135 34.07 40.84 34.07 40.5V39.24H35.3C35.6 39.2 35.855 39.06 36.065 38.82C36.275 38.58 36.38 38.305 36.38 37.995C36.38 37.685 36.275 37.41 36.065 37.17C35.855 36.93 35.6 36.79 35.3 36.75H34.07V35.49C34.07 35.15 33.945 34.855 33.695 34.605C33.445 34.355 33.15 34.23 32.81 34.23C32.47 34.23 32.175 34.355 31.925 34.605C31.675 34.855 31.55 35.15 31.55 35.49V36.75H30.32C30.02 36.79 29.765 36.93 29.555 37.17C29.345 37.41 29.24 37.685 29.24 37.995C29.24 38.305 29.345 38.58 29.555 38.82C29.765 39.06 30.02 39.2 30.32 39.24ZM41.57 25.5H39.05V24.24C39.05 23.56 38.88 22.935 38.54 22.365C38.2 21.795 37.745 21.34 37.175 21C36.605 20.66 35.98 20.49 35.3 20.49H30.32C29.64 20.49 29.015 20.66 28.445 21C27.875 21.34 27.42 21.795 27.08 22.365C26.74 22.935 26.57 23.56 26.57 24.24V25.5H24.05C23.37 25.5 22.745 25.67 22.175 26.01C21.605 26.35 21.15 26.805 20.81 27.375C20.47 27.945 20.3 28.57 20.3 29.25V41.76C20.3 42.44 20.47 43.065 20.81 43.635C21.15 44.205 21.605 44.66 22.175 45C22.745 45.34 23.37 45.51 24.05 45.51H41.57C42.25 45.51 42.875 45.34 43.445 45C44.015 44.66 44.47 44.205 44.81 43.635C45.15 43.065 45.32 42.44 45.32 41.76V29.25C45.32 28.57 45.15 27.945 44.81 27.375C44.47 26.805 44.015 26.35 43.445 26.01C42.875 25.67 42.25 25.5 41.57 25.5ZM29.06 24.24C29.06 23.9 29.185 23.61 29.435 23.37C29.685 23.13 29.98 23.01 30.32 23.01H35.3C35.64 23.01 35.935 23.13 36.185 23.37C36.435 23.61 36.56 23.9 36.56 24.24V25.5H29.06V24.24ZM42.8 41.76C42.8 42.1 42.68 42.39 42.44 42.63C42.2 42.87 41.91 42.99 41.57 42.99H24.05C23.71 42.99 23.42 42.87 23.18 42.63C22.94 42.39 22.82 42.1 22.82 41.76V33H42.8V41.76ZM42.8 30.51H22.82V29.25C22.82 28.91 22.94 28.615 23.18 28.365C23.42 28.115 23.71 27.99 24.05 27.99H41.57C41.91 27.99 42.2 28.115 42.44 28.365C42.68 28.615 42.8 28.91 42.8 29.25V30.51Z" fill="#396CF0"/>
</svg>
