<svg width="66" height="65" viewBox="0 0 66 65" fill="none" xmlns="http://www.w3.org/2000/svg">
<rect x="0.329987" width="65" height="65" rx="10" fill="#396CF0" fill-opacity="0.05"/>
<path d="M40.33 40.5C39.99 40.5 39.695 40.625 39.445 40.875C39.195 41.125 39.07 41.42 39.07 41.76C39.07 42.1 38.95 42.39 38.71 42.63C38.47 42.87 38.18 42.99 37.84 42.99H25.33C24.99 42.99 24.695 42.87 24.445 42.63C24.195 42.39 24.07 42.1 24.07 41.76V24.24C24.07 23.9 24.195 23.61 24.445 23.37C24.695 23.13 24.99 23.01 25.33 23.01H31.57V26.76C31.57 27.44 31.74 28.065 32.08 28.635C32.42 29.205 32.875 29.66 33.445 30C34.015 30.34 34.64 30.51 35.32 30.51H39.07V31.74C39.07 32.08 39.195 32.375 39.445 32.625C39.695 32.875 39.99 33 40.33 33C40.67 33 40.965 32.875 41.215 32.625C41.465 32.375 41.59 32.08 41.59 31.74V29.16C41.57 29.04 41.54 28.93 41.5 28.83C41.5 28.79 41.5 28.75 41.5 28.71C41.44 28.59 41.36 28.48 41.26 28.38L33.76 20.88C33.66 20.78 33.55 20.7 33.43 20.64H33.28C33.16 20.58 33.04 20.53 32.92 20.49H25.33C24.65 20.49 24.025 20.66 23.455 21C22.885 21.34 22.43 21.795 22.09 22.365C21.75 22.935 21.58 23.56 21.58 24.24V41.76C21.58 42.44 21.75 43.065 22.09 43.635C22.43 44.205 22.885 44.66 23.455 45C24.025 45.34 24.65 45.51 25.33 45.51H37.84C38.52 45.51 39.145 45.34 39.715 45C40.285 44.66 40.74 44.205 41.08 43.635C41.42 43.065 41.59 42.44 41.59 41.76C41.59 41.42 41.465 41.125 41.215 40.875C40.965 40.625 40.67 40.5 40.33 40.5ZM34.09 24.75L37.33 27.99H35.32C34.98 27.99 34.69 27.87 34.45 27.63C34.21 27.39 34.09 27.1 34.09 26.76V24.75ZM42.82 35.49H39.7C39.36 35.49 39.07 35.61 38.83 35.85L37.27 37.41L33.76 33.42C33.52 33.14 33.22 32.995 32.86 32.985C32.5 32.975 32.19 33.1 31.93 33.36L29.83 35.49H27.82C27.48 35.49 27.185 35.615 26.935 35.865C26.685 36.115 26.56 36.41 26.56 36.75C26.56 37.09 26.685 37.385 26.935 37.635C27.185 37.885 27.48 38.01 27.82 38.01H30.34C30.68 38.01 30.97 37.89 31.21 37.65L32.83 36.06L36.34 40.08C36.58 40.34 36.88 40.48 37.24 40.5C37.58 40.5 37.87 40.38 38.11 40.14L40.21 38.01H42.82C43.16 38.01 43.455 37.885 43.705 37.635C43.955 37.385 44.08 37.09 44.08 36.75C44.08 36.41 43.955 36.115 43.705 35.865C43.455 35.615 43.16 35.49 42.82 35.49Z" fill="#396CF0"/>
</svg>
