<svg width="40" height="40" viewBox="0 0 40 40" fill="none" xmlns="http://www.w3.org/2000/svg">
<rect width="40" height="40" rx="20" fill="#D1DBCF"/>
<path d="M26.9922 29.002H25.9922V27.335C25.9891 26.7627 25.8877 26.1952 25.6926 25.6572C25.6817 25.6279 25.6702 25.6006 25.6567 25.5727C25.4948 25.1311 25.271 24.7147 24.9922 24.3359L23.5923 22.4687C23.2039 21.9486 22.9934 21.3171 22.9922 20.668V19.6582C22.9945 18.8631 23.3101 18.101 23.8706 17.5371L24.5278 16.8798C25.2914 16.1121 25.782 15.1149 25.9241 14.0415C25.9247 14.0275 25.9321 14.0159 25.9321 14.0019L25.9293 13.9882C25.9641 13.7753 25.9851 13.5603 25.9922 13.3447V11.002H26.9922C27.2574 11.002 27.5118 10.8966 27.6993 10.7091C27.8868 10.5215 27.9922 10.2672 27.9922 10.002C27.9922 9.73674 27.8868 9.48238 27.6993 9.29485C27.5118 9.10731 27.2574 9.00195 26.9922 9.00195H12.9922C12.727 9.00195 12.4726 9.10731 12.2851 9.29485C12.0976 9.48238 11.9922 9.73674 11.9922 10.002C11.9922 10.2672 12.0976 10.5215 12.2851 10.7091C12.4726 10.8966 12.727 11.002 12.9922 11.002H13.9922V13.3447C13.9993 13.5603 14.0203 13.7753 14.0551 13.9882L14.0522 14.002C14.0522 14.016 14.0597 14.0276 14.0602 14.0415C14.2024 15.115 14.6929 16.1121 15.4565 16.8799L16.1138 17.5371C16.6743 18.101 16.9899 18.8631 16.9922 19.6582V20.668C16.9909 21.317 16.7806 21.9484 16.3926 22.4687L14.9917 24.3359C14.7129 24.7149 14.4893 25.1314 14.3273 25.5731C14.314 25.6008 14.3026 25.6277 14.2918 25.6568C14.0967 26.1949 13.9953 26.7625 13.9922 27.335V29.002H12.9922C12.727 29.002 12.4726 29.1073 12.2851 29.2948C12.0975 29.4824 11.9922 29.7367 11.9922 30.002C11.9922 30.2672 12.0975 30.5215 12.2851 30.7091C12.4726 30.8966 12.727 31.002 12.9922 31.002H26.9922C27.2574 31.002 27.5118 30.8966 27.6993 30.7091C27.8868 30.5215 27.9922 30.2672 27.9922 30.002C27.9922 29.7367 27.8868 29.4824 27.6993 29.2948C27.5118 29.1073 27.2574 29.002 26.9922 29.002ZM15.9922 13.002V11.002H23.9922V13.002H15.9922ZM16.8706 15.4658C16.7297 15.3243 16.6034 15.1689 16.4937 15.002H23.4907C23.3809 15.1689 23.2547 15.3243 23.1138 15.4658L22.4565 16.1231C21.6765 16.8985 21.1763 17.9112 21.0347 19.002H18.9497C18.808 17.9112 18.3079 16.8984 17.5278 16.123L16.8706 15.4658ZM17.9927 23.668C18.5713 22.8926 18.9144 21.9671 18.981 21.002H21.0034C21.0699 21.9672 21.4132 22.8928 21.9922 23.668L22.9923 25.002H16.9918L17.9927 23.668ZM23.9922 29.002H15.9922V27.335C15.995 27.2235 16.0041 27.1124 16.0194 27.002H23.965C23.9803 27.1124 23.9894 27.2235 23.9922 27.335V29.002Z" fill="#2D5B30"/>
</svg>
