<svg width="24" height="24" viewBox="0 0 24 24" fill="none" xmlns="http://www.w3.org/2000/svg">
<path d="M14.2906 17.2899L13.0006 18.5899V12.9999C13.0006 12.7347 12.8953 12.4803 12.7077 12.2928C12.5202 12.1053 12.2658 11.9999 12.0006 11.9999C11.7354 11.9999 11.4811 12.1053 11.2935 12.2928C11.106 12.4803 11.0006 12.7347 11.0006 12.9999V18.5899L9.71062 17.2899C9.61738 17.1967 9.50669 17.1227 9.38487 17.0722C9.26305 17.0218 9.13248 16.9958 9.00062 16.9958C8.86876 16.9958 8.73819 17.0218 8.61637 17.0722C8.49455 17.1227 8.38386 17.1967 8.29062 17.2899C8.19738 17.3831 8.12342 17.4938 8.07296 17.6156C8.0225 17.7375 7.99653 17.868 7.99653 17.9999C7.99653 18.1318 8.0225 18.2623 8.07296 18.3841C8.12342 18.506 8.19738 18.6167 8.29062 18.7099L11.2906 21.7099C11.3857 21.8009 11.4979 21.8723 11.6206 21.9199C11.7403 21.9728 11.8698 22.0001 12.0006 22.0001C12.1315 22.0001 12.2609 21.9728 12.3806 21.9199C12.5034 21.8723 12.6155 21.8009 12.7106 21.7099L15.7106 18.7099C15.8989 18.5216 16.0047 18.2662 16.0047 17.9999C16.0047 17.7336 15.8989 17.4782 15.7106 17.2899C15.5223 17.1016 15.2669 16.9958 15.0006 16.9958C14.7343 16.9958 14.4789 17.1016 14.2906 17.2899ZM18.4206 6.21989C17.8096 4.8159 16.7551 3.65097 15.4187 2.90362C14.0823 2.15627 12.5377 1.86773 11.0216 2.0822C9.5055 2.29668 8.10155 3.00235 7.02488 4.09107C5.94821 5.17979 5.25821 6.59151 5.06062 8.10989C4.10721 8.33822 3.27084 8.90873 2.71036 9.71308C2.14988 10.5174 1.90431 11.4996 2.02029 12.4731C2.13627 13.4466 2.60572 14.3436 3.33949 14.9938C4.07326 15.6439 5.02025 16.002 6.00062 15.9999C6.26584 15.9999 6.52019 15.8945 6.70773 15.707C6.89527 15.5195 7.00062 15.2651 7.00062 14.9999C7.00062 14.7347 6.89527 14.4803 6.70773 14.2928C6.52019 14.1053 6.26584 13.9999 6.00062 13.9999C5.47019 13.9999 4.96148 13.7892 4.58641 13.4141C4.21134 13.039 4.00062 12.5303 4.00062 11.9999C4.00062 11.4695 4.21134 10.9608 4.58641 10.5857C4.96148 10.2106 5.47019 9.99989 6.00062 9.99989C6.26584 9.99989 6.52019 9.89454 6.70773 9.707C6.89527 9.51946 7.00062 9.26511 7.00062 8.99989C7.00318 7.81717 7.42491 6.67365 8.19089 5.77248C8.95688 4.87131 10.0175 4.27085 11.1844 4.07777C12.3512 3.88469 13.5488 4.1115 14.5642 4.7179C15.5796 5.32431 16.3472 6.27103 16.7306 7.38989C16.7878 7.56173 16.8905 7.71483 17.0279 7.83283C17.1653 7.95083 17.3321 8.02931 17.5106 8.0599C18.1767 8.18577 18.7805 8.5335 19.2236 9.04643C19.6668 9.55936 19.9232 10.2073 19.951 10.8845C19.9789 11.5618 19.7765 12.2286 19.3769 12.7761C18.9774 13.3237 18.4041 13.7198 17.7506 13.8999C17.6232 13.9327 17.5036 13.9903 17.3984 14.0694C17.2933 14.1485 17.2048 14.2475 17.138 14.3608C17.0711 14.4741 17.0272 14.5994 17.0088 14.7297C16.9904 14.8599 16.9978 14.9925 17.0306 15.1199C17.0635 15.2473 17.1211 15.3669 17.2001 15.4721C17.2792 15.5772 17.3782 15.6657 17.4915 15.7326C17.6048 15.7994 17.7301 15.8433 17.8604 15.8617C17.9906 15.8801 18.1232 15.8727 18.2506 15.8399C19.303 15.5618 20.2359 14.9479 20.9076 14.0914C21.5794 13.2348 21.9532 12.1825 21.9725 11.0942C21.9917 10.0058 21.6552 8.94094 21.0142 8.06121C20.3731 7.18149 19.4625 6.53499 18.4206 6.21989Z" fill="#6F6F6F"/>
</svg>
