<svg width="24" height="24" viewBox="0 0 24 24" fill="none" xmlns="http://www.w3.org/2000/svg">
<path d="M17.3737 9.33419L13.3054 5.75089C12.9324 5.41575 12.4496 5.23047 11.9493 5.23047C11.4489 5.23047 10.9661 5.41575 10.5932 5.75089L6.5248 9.33419C6.30943 9.52771 6.13756 9.76511 6.02065 10.0306C5.90373 10.296 5.84445 10.5835 5.84674 10.8738V16.8278C5.84674 17.3698 6.06106 17.8896 6.44254 18.2729C6.82402 18.6562 7.34142 18.8715 7.88092 18.8715H16.0176C16.5571 18.8715 17.0745 18.6562 17.456 18.2729C17.8375 17.8896 18.0518 17.3698 18.0518 16.8278V10.867C18.0531 10.5778 17.9934 10.2917 17.8765 10.0275C17.7596 9.76325 17.5882 9.52695 17.3737 9.33419ZM13.3054 17.509H10.5932V14.1028C10.5932 13.9222 10.6646 13.7489 10.7917 13.6211C10.9189 13.4934 11.0914 13.4216 11.2712 13.4216H12.6273C12.8072 13.4216 12.9796 13.4934 13.1068 13.6211C13.2339 13.7489 13.3054 13.9222 13.3054 14.1028V17.509ZM16.6957 16.8278C16.6957 17.0085 16.6242 17.1817 16.4971 17.3095C16.3699 17.4372 16.1974 17.509 16.0176 17.509H14.6615V14.1028C14.6615 13.5608 14.4472 13.041 14.0657 12.6577C13.6842 12.2745 13.1668 12.0591 12.6273 12.0591H11.2712C10.7317 12.0591 10.2143 12.2745 9.83283 12.6577C9.45135 13.041 9.23703 13.5608 9.23703 14.1028V17.509H7.88092C7.70109 17.509 7.52862 17.4372 7.40146 17.3095C7.2743 17.1817 7.20286 17.0085 7.20286 16.8278V10.867C7.20298 10.7702 7.2236 10.6747 7.26335 10.5866C7.3031 10.4985 7.36107 10.4199 7.4334 10.356L11.5017 6.77955C11.6255 6.67034 11.7846 6.61011 11.9493 6.61011C12.114 6.61011 12.273 6.67034 12.3968 6.77955L16.4651 10.356C16.5375 10.4199 16.5954 10.4985 16.6352 10.5866C16.6749 10.6747 16.6956 10.7702 16.6957 10.867V16.8278Z" fill="white"/>
<path fill-rule="evenodd" clip-rule="evenodd" d="M1.48244 0.0797922C0.50727 0.33498 -0.143142 1.32617 0.0270555 2.2978C0.154189 3.02377 0.67494 3.6474 1.35133 3.88373L1.48483 3.93037V12.0052V20.08L1.35133 20.1266C0.450865 20.4412 -0.132517 21.4128 0.030379 22.3265C0.178483 23.1572 0.758635 23.7698 1.56815 23.9503C2.54304 24.1677 3.49851 23.6249 3.86797 22.6439L3.91656 22.5148H11.9713H20.0261L20.0726 22.6487C20.3865 23.5512 21.3558 24.136 22.2674 23.9727C22.4396 23.9419 22.6889 23.8662 22.8215 23.8046C23.303 23.5811 23.7446 23.0422 23.8592 22.5383C23.8886 22.4093 23.9323 22.2671 23.9563 22.2223C24.0115 22.1193 24.014 21.75 23.9592 21.7839C23.9368 21.7977 23.9069 21.7226 23.8927 21.6169C23.8535 21.3242 23.6067 20.8673 23.3473 20.6073C23.1449 20.4044 22.8055 20.194 22.5372 20.1052C22.4596 20.0795 22.4553 19.652 22.4553 12.0055V3.9329L22.584 3.8842C22.8999 3.7647 23.1338 3.61714 23.3486 3.40179C23.6076 3.14224 23.8536 2.68549 23.893 2.39131C23.9073 2.28443 23.9372 2.18571 23.9595 2.17192C23.9818 2.15813 24 2.05181 24 1.93569C24 1.81956 23.9813 1.73614 23.9584 1.75031C23.9356 1.76448 23.9034 1.68641 23.887 1.57681C23.811 1.06878 23.3675 0.482022 22.8719 0.233731C22.4876 0.0412723 22.0359 -0.0327177 21.6549 0.0343284C20.9306 0.161758 20.3084 0.683723 20.0726 1.36169L20.0261 1.4955H11.9713H3.91656L3.86797 1.36648C3.6043 0.666316 3.03164 0.172033 2.33273 0.0412724C1.99477 -0.0219264 1.84521 -0.0151702 1.48244 0.0797922ZM1.7024 1.02759C1.49288 1.0905 1.26974 1.26396 1.13975 1.46486C0.737805 2.0862 1.14635 2.9259 1.88027 2.98689C2.53326 3.04117 3.027 2.54731 2.97294 1.89388C2.92257 1.28517 2.28714 0.851878 1.7024 1.02759ZM21.5161 1.10843C20.8797 1.43188 20.7603 2.25802 21.2817 2.7302C21.7878 3.1885 22.5297 3.04774 22.8452 2.43358C22.9562 2.21753 22.9738 2.13608 22.954 1.93034C22.912 1.49395 22.6262 1.14272 22.2175 1.02524C21.9589 0.950922 21.7855 0.971472 21.5161 1.10843ZM0.000327529 1.98814C0.000702001 2.11717 0.00978296 2.16437 0.020549 2.09305C0.0312683 2.02174 0.0309875 1.91617 0.0198937 1.85846C0.00879997 1.80075 -1.35012e-07 1.85912 0.000327529 1.98814ZM3.88904 2.56275C3.68004 3.19868 3.18405 3.69582 2.5496 3.90531C2.47175 3.93102 2.46815 4.34756 2.47938 12.009L2.49123 20.0856L2.72527 20.1748C3.21204 20.3604 3.63426 20.7836 3.81943 21.2715L3.90846 21.5061H11.9701H20.0317L20.1207 21.2715C20.3059 20.7836 20.7281 20.3604 21.2149 20.1748L21.4489 20.0856V12.0052V3.92478L21.2149 3.83554C20.7281 3.64994 20.3059 3.22673 20.1207 2.73883L20.0317 2.50424L11.9739 2.49237C4.33026 2.48111 3.91469 2.48472 3.88904 2.56275ZM1.62666 21.0657C1.22757 21.2253 0.937211 21.6913 0.984957 22.0954C1.04614 22.6133 1.40502 22.9651 1.9231 23.0151C2.24258 23.046 2.61677 22.8613 2.81463 22.5751C2.97444 22.344 3.02635 21.9685 2.93633 21.695C2.85957 21.4619 2.62702 21.2053 2.39803 21.101C2.19488 21.0085 1.81329 20.991 1.62666 21.0657ZM21.5421 21.0984C21.3119 21.2064 21.0801 21.4633 21.0038 21.695C20.9138 21.9685 20.9657 22.344 21.1255 22.5751C21.3234 22.8613 21.6976 23.046 22.017 23.0151C22.5441 22.9642 22.9036 22.6038 22.9544 22.0755C22.9853 21.754 22.801 21.3804 22.5128 21.1801C22.2533 20.9999 21.8285 20.9641 21.5421 21.0984ZM0.000327529 22.0222C0.000702001 22.1512 0.00978296 22.1984 0.020549 22.1271C0.0312683 22.0558 0.0309875 21.9502 0.0198937 21.8925C0.00879997 21.8348 -1.35012e-07 21.8932 0.000327529 22.0222Z" fill="white"/>
</svg>
