<svg width="40" height="40" viewBox="0 0 40 40" fill="none" xmlns="http://www.w3.org/2000/svg">
<rect width="40" height="40" rx="20" fill="#D1DBCF"/>
<path d="M27 12H13C12.2044 12 11.4413 12.3161 10.8787 12.8787C10.3161 13.4413 10 14.2044 10 15V25C10 25.7956 10.3161 26.5587 10.8787 27.1213C11.4413 27.6839 12.2044 28 13 28H27C27.7956 28 28.5587 27.6839 29.1213 27.1213C29.6839 26.5587 30 25.7956 30 25V15C30 14.2044 29.6839 13.4413 29.1213 12.8787C28.5587 12.3161 27.7956 12 27 12ZM26.59 14L20.71 19.88C20.617 19.9737 20.5064 20.0481 20.3846 20.0989C20.2627 20.1497 20.132 20.1758 20 20.1758C19.868 20.1758 19.7373 20.1497 19.6154 20.0989C19.4936 20.0481 19.383 19.9737 19.29 19.88L13.41 14H26.59ZM28 25C28 25.2652 27.8946 25.5196 27.7071 25.7071C27.5196 25.8946 27.2652 26 27 26H13C12.7348 26 12.4804 25.8946 12.2929 25.7071C12.1054 25.5196 12 25.2652 12 25V15.41L17.88 21.29C18.4425 21.8518 19.205 22.1674 20 22.1674C20.795 22.1674 21.5575 21.8518 22.12 21.29L28 15.41V25Z" fill="#2D5B30"/>
</svg>
