<svg width="40" height="40" viewBox="0 0 40 40" fill="none" xmlns="http://www.w3.org/2000/svg">
<rect width="40" height="40" rx="20" fill="#D1DBCF"/>
<path d="M15.9999 19C15.8021 19 15.6087 19.0586 15.4443 19.1685C15.2798 19.2784 15.1517 19.4346 15.076 19.6173C15.0003 19.8 14.9805 20.0011 15.0191 20.1951C15.0577 20.3891 15.1529 20.5673 15.2928 20.7071C15.4326 20.847 15.6108 20.9422 15.8048 20.9808C15.9988 21.0194 16.1998 20.9996 16.3825 20.9239C16.5653 20.8482 16.7215 20.72 16.8313 20.5556C16.9412 20.3911 16.9999 20.1978 16.9999 20C16.9999 19.7348 16.8945 19.4804 16.707 19.2929C16.5194 19.1054 16.2651 19 15.9999 19ZM19.9999 19C19.8021 19 19.6087 19.0586 19.4443 19.1685C19.2798 19.2784 19.1517 19.4346 19.076 19.6173C19.0003 19.8 18.9805 20.0011 19.0191 20.1951C19.0577 20.3891 19.1529 20.5673 19.2928 20.7071C19.4326 20.847 19.6108 20.9422 19.8048 20.9808C19.9988 21.0194 20.1998 20.9996 20.3826 20.9239C20.5653 20.8482 20.7215 20.72 20.8313 20.5556C20.9412 20.3911 20.9999 20.1978 20.9999 20C20.9999 19.7348 20.8945 19.4804 20.707 19.2929C20.5194 19.1054 20.2651 19 19.9999 19ZM23.9999 19C23.8021 19 23.6087 19.0586 23.4443 19.1685C23.2798 19.2784 23.1517 19.4346 23.076 19.6173C23.0003 19.8 22.9805 20.0011 23.0191 20.1951C23.0577 20.3891 23.1529 20.5673 23.2928 20.7071C23.4326 20.847 23.6108 20.9422 23.8048 20.9808C23.9988 21.0194 24.1998 20.9996 24.3825 20.9239C24.5653 20.8482 24.7215 20.72 24.8313 20.5556C24.9412 20.3911 24.9999 20.1978 24.9999 20C24.9999 19.7348 24.8945 19.4804 24.707 19.2929C24.5194 19.1054 24.2651 19 23.9999 19ZM19.9999 10C18.6866 10 17.3863 10.2587 16.173 10.7612C14.9598 11.2638 13.8574 12.0003 12.9288 12.9289C11.0534 14.8043 9.99987 17.3478 9.99987 20C9.99112 22.3091 10.7907 24.5485 12.2599 26.33L10.2599 28.33C10.1211 28.4706 10.0271 28.6492 9.98974 28.8432C9.95236 29.0372 9.97329 29.2379 10.0499 29.42C10.1329 29.5999 10.2676 29.7511 10.4367 29.8544C10.6059 29.9577 10.8019 30.0083 10.9999 30H19.9999C22.652 30 25.1956 28.9464 27.0709 27.0711C28.9463 25.1957 29.9999 22.6522 29.9999 20C29.9999 17.3478 28.9463 14.8043 27.0709 12.9289C25.1956 11.0536 22.652 10 19.9999 10ZM19.9999 28H13.4099L14.3399 27.07C14.5261 26.8826 14.6307 26.6292 14.6307 26.365C14.6307 26.1008 14.5261 25.8474 14.3399 25.66C13.0305 24.352 12.215 22.6305 12.0326 20.7888C11.8501 18.947 12.3118 17.099 13.3391 15.5595C14.3664 14.02 15.8957 12.8844 17.6664 12.346C19.4371 11.8076 21.3397 11.8998 23.0501 12.6069C24.7604 13.314 26.1727 14.5923 27.0463 16.2239C27.9199 17.8555 28.2007 19.7395 27.841 21.555C27.4813 23.3705 26.5032 25.005 25.0734 26.1802C23.6436 27.3554 21.8506 27.9985 19.9999 28Z" fill="#2D5B30"/>
</svg>
