<svg width="66" height="65" viewBox="0 0 66 65" fill="none" xmlns="http://www.w3.org/2000/svg">
<rect x="0.640015" width="65" height="65" rx="10" fill="#396CF0" fill-opacity="0.05"/>
<path d="M39.38 25.5H36.89V23.01H39.38C39.72 23.01 40.015 22.885 40.265 22.635C40.515 22.385 40.64 22.09 40.64 21.75C40.64 21.41 40.515 21.115 40.265 20.865C40.015 20.615 39.72 20.49 39.38 20.49H29.39C28.55 20.49 27.75 20.65 26.99 20.97C26.23 21.29 25.555 21.745 24.965 22.335C24.375 22.925 23.925 23.6 23.615 24.36C23.305 25.12 23.15 25.92 23.15 26.76V44.25C23.19 44.55 23.33 44.805 23.57 45.015C23.81 45.225 24.085 45.33 24.395 45.33C24.705 45.33 24.98 45.225 25.22 45.015C25.46 44.805 25.6 44.55 25.64 44.25V26.76C25.64 26.08 25.81 25.455 26.15 24.885C26.49 24.315 26.945 23.86 27.515 23.52C28.085 23.18 28.71 23.01 29.39 23.01H34.4V25.5H31.88C31.2 25.5 30.575 25.67 30.005 26.01C29.435 26.35 28.98 26.805 28.64 27.375C28.3 27.945 28.13 28.57 28.13 29.25V35.4C28.13 36.04 28.28 36.64 28.58 37.2C28.88 37.76 29.29 38.21 29.81 38.55L31.88 39.93V40.5C31.88 41.2 32.125 41.79 32.615 42.27C33.105 42.75 33.7 42.99 34.4 42.99V44.25C34.44 44.55 34.58 44.805 34.82 45.015C35.06 45.225 35.335 45.33 35.645 45.33C35.955 45.33 36.23 45.225 36.47 45.015C36.71 44.805 36.85 44.55 36.89 44.25V42.99C37.57 42.99 38.155 42.745 38.645 42.255C39.135 41.765 39.38 41.18 39.38 40.5V39.93L41.48 38.55C42 38.19 42.405 37.735 42.695 37.185C42.985 36.635 43.13 36.04 43.13 35.4V29.25C43.13 28.57 42.96 27.945 42.62 27.375C42.28 26.805 41.825 26.35 41.255 26.01C40.685 25.67 40.06 25.5 39.38 25.5ZM38.15 31.74H40.64V33H39.38C39.08 33.04 38.825 33.18 38.615 33.42C38.405 33.66 38.3 33.935 38.3 34.245C38.3 34.555 38.405 34.83 38.615 35.07C38.825 35.31 39.08 35.45 39.38 35.49H40.64C40.62 35.89 40.44 36.21 40.1 36.45L37.46 38.22C37.28 38.34 37.14 38.49 37.04 38.67C36.94 38.85 36.89 39.04 36.89 39.24V40.5H34.4V39.24C34.4 39.04 34.35 38.85 34.25 38.67C34.15 38.49 34.01 38.34 33.83 38.22L31.19 36.45C31.01 36.33 30.875 36.175 30.785 35.985C30.695 35.795 30.65 35.6 30.65 35.4V29.25C30.65 28.91 30.77 28.615 31.01 28.365C31.25 28.115 31.54 27.99 31.88 27.99H39.38C39.72 27.99 40.015 28.115 40.265 28.365C40.515 28.615 40.64 28.91 40.64 29.25H38.15C37.85 29.29 37.595 29.43 37.385 29.67C37.175 29.91 37.07 30.185 37.07 30.495C37.07 30.805 37.175 31.08 37.385 31.32C37.595 31.56 37.85 31.7 38.15 31.74Z" fill="#396CF0"/>
</svg>
