<svg width="65" height="65" viewBox="0 0 65 65" fill="none" xmlns="http://www.w3.org/2000/svg">
<rect width="65" height="65" rx="10" fill="#396CF0" fill-opacity="0.05"/>
<path d="M26.26 33.63C26.94 33.63 27.565 33.46 28.135 33.12C28.705 32.78 29.16 32.325 29.5 31.755C29.84 31.185 30.01 30.56 30.01 29.88C30.01 29.2 29.84 28.575 29.5 28.005C29.16 27.435 28.705 26.98 28.135 26.64C27.565 26.3 26.94 26.13 26.26 26.13C25.58 26.13 24.955 26.3 24.385 26.64C23.815 26.98 23.36 27.435 23.02 28.005C22.68 28.575 22.51 29.2 22.51 29.88C22.51 30.56 22.68 31.185 23.02 31.755C23.36 32.325 23.815 32.78 24.385 33.12C24.955 33.46 25.58 33.63 26.26 33.63ZM26.26 28.62C26.6 28.62 26.895 28.745 27.145 28.995C27.395 29.245 27.52 29.54 27.52 29.88C27.52 30.22 27.395 30.515 27.145 30.765C26.895 31.015 26.6 31.14 26.26 31.14C25.92 31.14 25.625 31.015 25.375 30.765C25.125 30.515 25 30.22 25 29.88C25 29.54 25.125 29.245 25.375 28.995C25.625 28.745 25.92 28.62 26.26 28.62ZM42.49 26.13H32.5C32.16 26.13 31.865 26.25 31.615 26.49C31.365 26.73 31.24 27.02 31.24 27.36V34.86H21.25V24.87C21.21 24.57 21.07 24.315 20.83 24.105C20.59 23.895 20.315 23.79 20.005 23.79C19.695 23.79 19.42 23.895 19.18 24.105C18.94 24.315 18.8 24.57 18.76 24.87V41.13C18.8 41.43 18.94 41.685 19.18 41.895C19.42 42.105 19.695 42.21 20.005 42.21C20.315 42.21 20.59 42.105 20.83 41.895C21.07 41.685 21.21 41.43 21.25 41.13V37.38H43.75V41.13C43.79 41.43 43.93 41.685 44.17 41.895C44.41 42.105 44.685 42.21 44.995 42.21C45.305 42.21 45.58 42.105 45.82 41.895C46.06 41.685 46.2 41.43 46.24 41.13V29.88C46.24 29.2 46.07 28.575 45.73 28.005C45.39 27.435 44.935 26.98 44.365 26.64C43.795 26.3 43.17 26.13 42.49 26.13ZM43.75 34.86H33.76V28.62H42.49C42.83 28.62 43.125 28.745 43.375 28.995C43.625 29.245 43.75 29.54 43.75 29.88V34.86Z" fill="#396CF0"/>
</svg>
