<svg width="24" height="24" viewBox="0 0 24 24" fill="none" xmlns="http://www.w3.org/2000/svg">
<path d="M7.75827 10.7578C8.35162 10.7578 8.93164 10.5818 9.42498 10.2522C9.91833 9.92255 10.3028 9.45401 10.5299 8.90583C10.757 8.35766 10.8164 7.75446 10.7006 7.17251C10.5849 6.59057 10.2992 6.05602 9.87959 5.63646C9.46004 5.21691 8.92549 4.93118 8.34354 4.81543C7.7616 4.69967 7.1584 4.75908 6.61022 4.98615C6.06204 5.21321 5.59351 5.59773 5.26386 6.09107C4.93422 6.58442 4.75827 7.16444 4.75827 7.75778C4.75914 8.55317 5.07549 9.31572 5.63791 9.87814C6.20033 10.4406 6.96289 10.7569 7.75827 10.7578ZM7.75827 6.75778C7.95605 6.75778 8.14939 6.81643 8.31384 6.92631C8.47829 7.0362 8.60646 7.19237 8.68215 7.3751C8.75784 7.55783 8.77764 7.75889 8.73906 7.95287C8.70047 8.14686 8.60523 8.32504 8.46538 8.46489C8.32553 8.60474 8.14734 8.69998 7.95336 8.73857C7.75938 8.77715 7.55832 8.75735 7.37559 8.68166C7.19286 8.60598 7.03668 8.4778 6.9268 8.31335C6.81692 8.1489 6.75827 7.95557 6.75827 7.75778C6.75845 7.49262 6.86386 7.23837 7.05136 7.05087C7.23886 6.86337 7.49311 6.75796 7.75827 6.75778ZM16.2427 13.2422C15.6493 13.2422 15.0693 13.4181 14.5759 13.7478C14.0826 14.0774 13.6981 14.5459 13.471 15.0941C13.244 15.6423 13.1845 16.2455 13.3003 16.8274C13.4161 17.4094 13.7018 17.9439 14.1213 18.3635C14.5409 18.783 15.0754 19.0688 15.6574 19.1845C16.2393 19.3003 16.8425 19.2409 17.3907 19.0138C17.9389 18.7867 18.4074 18.4022 18.7371 17.9089C19.0667 17.4155 19.2427 16.8355 19.2427 16.2422C19.2418 15.4468 18.9254 14.6842 18.363 14.1218C17.8006 13.5594 17.038 13.243 16.2427 13.2422ZM16.2427 17.2422C16.0449 17.2422 15.8515 17.1835 15.6871 17.0736C15.5226 16.9638 15.3945 16.8076 15.3188 16.6248C15.2431 16.4421 15.2233 16.2411 15.2619 16.0471C15.3005 15.8531 15.3957 15.6749 15.5355 15.5351C15.6754 15.3952 15.8536 15.3 16.0476 15.2614C16.2415 15.2228 16.4426 15.2426 16.6253 15.3183C16.8081 15.394 16.9642 15.5221 17.0741 15.6866C17.184 15.851 17.2427 16.0444 17.2427 16.2422C17.2425 16.5073 17.1371 16.7616 16.9496 16.9491C16.7621 17.1366 16.5078 17.242 16.2427 17.2422ZM19.7075 4.29297C19.6146 4.20009 19.5044 4.12641 19.3831 4.07614C19.2618 4.02587 19.1318 4 19.0004 4C18.8691 4 18.7391 4.02587 18.6178 4.07614C18.4965 4.12641 18.3862 4.20009 18.2934 4.29297L4.2934 18.293C4.1996 18.3856 4.12504 18.4959 4.07401 18.6174C4.02299 18.739 3.99651 18.8695 3.9961 19.0013C3.99569 19.1331 4.02135 19.2638 4.07161 19.3856C4.12188 19.5075 4.19575 19.6182 4.28897 19.7115C4.38219 19.8047 4.49293 19.8786 4.61482 19.9288C4.7367 19.9791 4.86731 20.0047 4.99915 20.0043C5.13099 20.0039 5.26144 19.9774 5.383 19.9264C5.50456 19.8753 5.61483 19.8008 5.70746 19.707L19.7075 5.70697C19.8003 5.61414 19.874 5.50393 19.9243 5.38262C19.9745 5.26131 20.0004 5.13128 20.0004 4.99997C20.0004 4.86866 19.9745 4.73864 19.9243 4.61733C19.874 4.49602 19.8003 4.3858 19.7075 4.29297Z" fill="white"/>
</svg>
