<svg width="40" height="40" viewBox="0 0 40 40" fill="none" xmlns="http://www.w3.org/2000/svg">
<rect width="40" height="40" rx="20" fill="#D1DBCF"/>
<path d="M27.4396 21C27.2196 21 26.9896 20.93 26.7696 20.88C26.3241 20.7818 25.8863 20.6515 25.4596 20.49C24.9957 20.3212 24.4858 20.33 24.0279 20.5146C23.5701 20.6992 23.1967 21.0466 22.9796 21.49L22.7596 21.94C21.7856 21.3982 20.8906 20.7252 20.0996 19.94C19.3144 19.149 18.6414 18.254 18.0996 17.28L18.5196 17C18.963 16.7829 19.3104 16.4095 19.495 15.9517C19.6796 15.4938 19.6884 14.9839 19.5196 14.52C19.3608 14.0924 19.2305 13.6548 19.1296 13.21C19.0796 12.99 19.0396 12.76 19.0096 12.53C18.8882 11.8256 18.5192 11.1877 17.9692 10.7312C17.4192 10.2747 16.7243 10.0296 16.0096 10.04H13.0096C12.5786 10.0359 12.1519 10.1248 11.7583 10.3005C11.3648 10.4762 11.0137 10.7347 10.729 11.0583C10.4444 11.3819 10.2327 11.763 10.1086 12.1757C9.98445 12.5884 9.95069 13.023 10.0096 13.45C10.5424 17.6394 12.4556 21.5319 15.4473 24.5126C18.4389 27.4934 22.3383 29.3925 26.5296 29.91H26.9096C27.647 29.9111 28.359 29.6405 28.9096 29.15C29.226 28.867 29.4787 28.5202 29.6511 28.1323C29.8235 27.7444 29.9116 27.3244 29.9096 26.9V23.9C29.8974 23.2054 29.6444 22.5365 29.194 22.0077C28.7435 21.4788 28.1234 21.1226 27.4396 21ZM27.9396 27C27.9394 27.142 27.909 27.2823 27.8504 27.4116C27.7918 27.5409 27.7063 27.6563 27.5996 27.75C27.4882 27.847 27.3576 27.9194 27.2163 27.9625C27.075 28.0056 26.9262 28.0183 26.7796 28C23.0345 27.5198 19.5558 25.8065 16.8923 23.1303C14.2288 20.4541 12.532 16.9673 12.0696 13.22C12.0537 13.0735 12.0676 12.9253 12.1106 12.7844C12.1536 12.6434 12.2247 12.5127 12.3196 12.4C12.4133 12.2933 12.5287 12.2078 12.658 12.1492C12.7873 12.0906 12.9276 12.0602 13.0696 12.06H16.0696C16.3022 12.0548 16.5292 12.1309 16.7118 12.2751C16.8943 12.4193 17.0208 12.6226 17.0696 12.85C17.1096 13.1233 17.1596 13.3933 17.2196 13.66C17.3351 14.1871 17.4889 14.7052 17.6796 15.21L16.2796 15.86C16.1599 15.9149 16.0522 15.9929 15.9628 16.0896C15.8733 16.1862 15.8038 16.2996 15.7583 16.4232C15.7128 16.5468 15.6921 16.6781 15.6975 16.8097C15.7028 16.9413 15.7342 17.0705 15.7896 17.19C17.2288 20.2727 19.7069 22.7508 22.7896 24.19C23.0331 24.29 23.3062 24.29 23.5496 24.19C23.6743 24.1454 23.7889 24.0764 23.8868 23.9872C23.9846 23.8979 24.0638 23.7901 24.1196 23.67L24.7396 22.27C25.2566 22.4549 25.7842 22.6085 26.3196 22.73C26.5863 22.79 26.8563 22.84 27.1296 22.88C27.357 22.9288 27.5604 23.0553 27.7045 23.2378C27.8487 23.4204 27.9248 23.6474 27.9196 23.88L27.9396 27Z" fill="#2D5B30"/>
</svg>
