<svg width="33" height="16" viewBox="0 0 33 16" fill="none" xmlns="http://www.w3.org/2000/svg">
<g opacity="0.5">
<path d="M3.644 12.192C2.69467 12.192 1.90533 11.952 1.276 11.472C0.646667 10.992 0.278667 10.3413 0.172 9.52H1.548C1.63333 9.936 1.852 10.2987 2.204 10.608C2.56667 10.9067 3.052 11.056 3.66 11.056C4.22533 11.056 4.64133 10.9387 4.908 10.704C5.17467 10.4587 5.308 10.1707 5.308 9.84C5.308 9.36 5.132 9.04 4.78 8.88C4.43867 8.72 3.95333 8.576 3.324 8.448C2.89733 8.36267 2.47067 8.24 2.044 8.08C1.61733 7.92 1.26 7.696 0.972 7.408C0.684 7.10933 0.54 6.72 0.54 6.24C0.54 5.54667 0.796 4.98133 1.308 4.544C1.83067 4.096 2.53467 3.872 3.42 3.872C4.26267 3.872 4.95067 4.08533 5.484 4.512C6.028 4.928 6.34267 5.52533 6.428 6.304H5.1C5.04667 5.89867 4.87067 5.584 4.572 5.36C4.284 5.12533 3.89467 5.008 3.404 5.008C2.924 5.008 2.55067 5.10933 2.284 5.312C2.028 5.51467 1.9 5.78133 1.9 6.112C1.9 6.432 2.06533 6.68267 2.396 6.864C2.73733 7.04533 3.196 7.2 3.772 7.328C4.26267 7.43467 4.72667 7.568 5.164 7.728C5.612 7.87733 5.97467 8.10667 6.252 8.416C6.54 8.71467 6.684 9.152 6.684 9.728C6.69467 10.4427 6.42267 11.0347 5.868 11.504C5.324 11.9627 4.58267 12.192 3.644 12.192ZM15.116 15.52V10.688C14.86 11.072 14.492 11.4187 14.012 11.728C13.532 12.0373 12.9293 12.192 12.204 12.192C11.4147 12.192 10.7213 12.0107 10.124 11.648C9.53733 11.2853 9.07867 10.7893 8.748 10.16C8.428 9.53067 8.268 8.816 8.268 8.016C8.268 7.216 8.43333 6.50667 8.764 5.888C9.09467 5.25867 9.55333 4.768 10.14 4.416C10.7267 4.05333 11.42 3.872 12.22 3.872C12.8707 3.872 13.4467 4.00533 13.948 4.272C14.4493 4.53867 14.8387 4.912 15.116 5.392L15.244 4.064H16.46V15.52H15.116ZM12.348 11.024C12.8813 11.024 13.3507 10.9013 13.756 10.656C14.172 10.4 14.492 10.048 14.716 9.6C14.9507 9.152 15.068 8.62933 15.068 8.032C15.068 7.43467 14.9507 6.912 14.716 6.464C14.492 6.016 14.172 5.66933 13.756 5.424C13.3507 5.168 12.8813 5.04 12.348 5.04C11.8253 5.04 11.356 5.168 10.94 5.424C10.5347 5.66933 10.2147 6.016 9.98 6.464C9.756 6.912 9.644 7.43467 9.644 8.032C9.644 8.62933 9.756 9.152 9.98 9.6C10.2147 10.048 10.5347 10.4 10.94 10.656C11.356 10.9013 11.8253 11.024 12.348 11.024ZM23.3173 12V5.2H22.1173V4.064H23.3173V2.688C23.3173 1.92 23.5093 1.36 23.8932 1.008C24.2773 0.656 24.8373 0.48 25.5733 0.48H26.3733V1.632H25.7812C25.3759 1.632 25.0879 1.71733 24.9173 1.888C24.7466 2.048 24.6613 2.32533 24.6613 2.72V4.064H26.6133V5.2H24.6613V12H23.3173ZM31.3494 12C30.624 12 30.0534 11.824 29.6374 11.472C29.2214 11.12 29.0134 10.4853 29.0134 9.568V5.2H27.6374V4.064H29.0134L29.1894 2.16H30.3574V4.064H32.6934V5.2H30.3574V9.568C30.3574 10.0693 30.4587 10.4107 30.6614 10.592C30.864 10.7627 31.2214 10.848 31.7334 10.848H32.5654V12H31.3494Z" fill="#6F6F6F"/>
<path d="M3.644 12.192C2.69467 12.192 1.90533 11.952 1.276 11.472C0.646667 10.992 0.278667 10.3413 0.172 9.52H1.548C1.63333 9.936 1.852 10.2987 2.204 10.608C2.56667 10.9067 3.052 11.056 3.66 11.056C4.22533 11.056 4.64133 10.9387 4.908 10.704C5.17467 10.4587 5.308 10.1707 5.308 9.84C5.308 9.36 5.132 9.04 4.78 8.88C4.43867 8.72 3.95333 8.576 3.324 8.448C2.89733 8.36267 2.47067 8.24 2.044 8.08C1.61733 7.92 1.26 7.696 0.972 7.408C0.684 7.10933 0.54 6.72 0.54 6.24C0.54 5.54667 0.796 4.98133 1.308 4.544C1.83067 4.096 2.53467 3.872 3.42 3.872C4.26267 3.872 4.95067 4.08533 5.484 4.512C6.028 4.928 6.34267 5.52533 6.428 6.304H5.1C5.04667 5.89867 4.87067 5.584 4.572 5.36C4.284 5.12533 3.89467 5.008 3.404 5.008C2.924 5.008 2.55067 5.10933 2.284 5.312C2.028 5.51467 1.9 5.78133 1.9 6.112C1.9 6.432 2.06533 6.68267 2.396 6.864C2.73733 7.04533 3.196 7.2 3.772 7.328C4.26267 7.43467 4.72667 7.568 5.164 7.728C5.612 7.87733 5.97467 8.10667 6.252 8.416C6.54 8.71467 6.684 9.152 6.684 9.728C6.69467 10.4427 6.42267 11.0347 5.868 11.504C5.324 11.9627 4.58267 12.192 3.644 12.192ZM15.116 15.52V10.688C14.86 11.072 14.492 11.4187 14.012 11.728C13.532 12.0373 12.9293 12.192 12.204 12.192C11.4147 12.192 10.7213 12.0107 10.124 11.648C9.53733 11.2853 9.07867 10.7893 8.748 10.16C8.428 9.53067 8.268 8.816 8.268 8.016C8.268 7.216 8.43333 6.50667 8.764 5.888C9.09467 5.25867 9.55333 4.768 10.14 4.416C10.7267 4.05333 11.42 3.872 12.22 3.872C12.8707 3.872 13.4467 4.00533 13.948 4.272C14.4493 4.53867 14.8387 4.912 15.116 5.392L15.244 4.064H16.46V15.52H15.116ZM12.348 11.024C12.8813 11.024 13.3507 10.9013 13.756 10.656C14.172 10.4 14.492 10.048 14.716 9.6C14.9507 9.152 15.068 8.62933 15.068 8.032C15.068 7.43467 14.9507 6.912 14.716 6.464C14.492 6.016 14.172 5.66933 13.756 5.424C13.3507 5.168 12.8813 5.04 12.348 5.04C11.8253 5.04 11.356 5.168 10.94 5.424C10.5347 5.66933 10.2147 6.016 9.98 6.464C9.756 6.912 9.644 7.43467 9.644 8.032C9.644 8.62933 9.756 9.152 9.98 9.6C10.2147 10.048 10.5347 10.4 10.94 10.656C11.356 10.9013 11.8253 11.024 12.348 11.024ZM23.3173 12V5.2H22.1173V4.064H23.3173V2.688C23.3173 1.92 23.5093 1.36 23.8932 1.008C24.2773 0.656 24.8373 0.48 25.5733 0.48H26.3733V1.632H25.7812C25.3759 1.632 25.0879 1.71733 24.9173 1.888C24.7466 2.048 24.6613 2.32533 24.6613 2.72V4.064H26.6133V5.2H24.6613V12H23.3173ZM31.3494 12C30.624 12 30.0534 11.824 29.6374 11.472C29.2214 11.12 29.0134 10.4853 29.0134 9.568V5.2H27.6374V4.064H29.0134L29.1894 2.16H30.3574V4.064H32.6934V5.2H30.3574V9.568C30.3574 10.0693 30.4587 10.4107 30.6614 10.592C30.864 10.7627 31.2214 10.848 31.7334 10.848H32.5654V12H31.3494Z" fill="black" fill-opacity="0.2"/>
</g>
</svg>
