<svg width="20" height="21" viewBox="0 0 20 21" fill="none" xmlns="http://www.w3.org/2000/svg">
<path d="M12.342 10.7337C12.8695 10.1672 13.1666 9.4243 13.1753 8.65033C13.1753 7.81489 12.8435 7.01368 12.2527 6.42294C11.662 5.8322 10.8608 5.50033 10.0253 5.50033C9.18989 5.50033 8.38868 5.8322 7.79794 6.42294C7.2072 7.01368 6.87533 7.81489 6.87533 8.65033C6.88402 9.4243 7.18118 10.1672 7.70866 10.7337C6.9742 11.0994 6.34218 11.6419 5.86942 12.3125C5.39667 12.9831 5.09801 13.7607 5.00033 14.5753C4.97601 14.7963 5.0405 15.018 5.17958 15.1914C5.31867 15.3649 5.52098 15.476 5.74199 15.5003C5.96301 15.5246 6.18463 15.4602 6.3581 15.3211C6.53157 15.182 6.64268 14.9797 6.66699 14.7587C6.76644 13.9513 7.1577 13.2081 7.76706 12.6692C8.37643 12.1303 9.16184 11.8328 9.97533 11.8328C10.7888 11.8328 11.5742 12.1303 12.1836 12.6692C12.793 13.2081 13.1842 13.9513 13.2837 14.7587C13.3068 14.9723 13.4117 15.1688 13.5763 15.307C13.7409 15.4452 13.9525 15.5145 14.167 15.5003H14.2587C14.4771 15.4752 14.6768 15.3647 14.8141 15.193C14.9515 15.0213 15.0154 14.8023 14.992 14.5837C14.9015 13.7733 14.6123 12.9979 14.15 12.3262C13.6877 11.6545 13.0666 11.1075 12.342 10.7337ZM10.0003 10.1337C9.70695 10.1337 9.42016 10.0467 9.17623 9.88367C8.9323 9.72068 8.74217 9.48902 8.6299 9.21797C8.51763 8.94693 8.48826 8.64868 8.54549 8.36094C8.60273 8.0732 8.744 7.8089 8.95145 7.60145C9.1589 7.394 9.4232 7.25273 9.71094 7.19549C9.99868 7.13826 10.2969 7.16763 10.568 7.2799C10.839 7.39217 11.0707 7.5823 11.2337 7.82623C11.3967 8.07016 11.4837 8.35695 11.4837 8.65033C11.4837 9.04373 11.3274 9.42102 11.0492 9.6992C10.771 9.97738 10.3937 10.1337 10.0003 10.1337ZM15.8337 2.16699H4.16699C3.50395 2.16699 2.86807 2.43038 2.39923 2.89923C1.93038 3.36807 1.66699 4.00395 1.66699 4.66699V16.3337C1.66699 16.9967 1.93038 17.6326 2.39923 18.1014C2.86807 18.5703 3.50395 18.8337 4.16699 18.8337H15.8337C16.4967 18.8337 17.1326 18.5703 17.6014 18.1014C18.0703 17.6326 18.3337 16.9967 18.3337 16.3337V4.66699C18.3337 4.00395 18.0703 3.36807 17.6014 2.89923C17.1326 2.43038 16.4967 2.16699 15.8337 2.16699ZM16.667 16.3337C16.667 16.5547 16.5792 16.7666 16.4229 16.9229C16.2666 17.0792 16.0547 17.167 15.8337 17.167H4.16699C3.94598 17.167 3.73402 17.0792 3.57774 16.9229C3.42146 16.7666 3.33366 16.5547 3.33366 16.3337V4.66699C3.33366 4.44598 3.42146 4.23402 3.57774 4.07774C3.73402 3.92146 3.94598 3.83366 4.16699 3.83366H15.8337C16.0547 3.83366 16.2666 3.92146 16.4229 4.07774C16.5792 4.23402 16.667 4.44598 16.667 4.66699V16.3337Z" fill="#2D5B30"/>
</svg>
