<svg width="20" height="20" viewBox="0 0 20 20" fill="none" xmlns="http://www.w3.org/2000/svg">
<path d="M16.1998 10.8338C16.0165 10.8338 15.8248 10.7755 15.6415 10.7338C15.2702 10.652 14.9054 10.5434 14.5498 10.4088C14.1632 10.2682 13.7383 10.2755 13.3568 10.4293C12.9752 10.5831 12.6641 10.8727 12.4832 11.2421L12.2998 11.6171C11.4882 11.1656 10.7423 10.6048 10.0832 9.95046C9.42881 9.29131 8.86803 8.54546 8.41651 7.73379L8.76651 7.50046C9.13598 7.31956 9.42549 7.0084 9.57933 6.62687C9.73318 6.24534 9.74048 5.82039 9.59984 5.43379C9.46753 5.07748 9.35895 4.71279 9.27484 4.34213C9.23317 4.15879 9.19984 3.96713 9.17484 3.77546C9.07364 3.18848 8.76619 2.65691 8.30786 2.27649C7.84952 1.89607 7.27042 1.6918 6.67484 1.70046H4.17484C3.8157 1.69709 3.46005 1.77114 3.1321 1.91757C2.80415 2.064 2.5116 2.27937 2.27437 2.54903C2.03713 2.81868 1.86079 3.13629 1.75733 3.48022C1.65387 3.82416 1.62574 4.18634 1.67484 4.54213C2.11879 8.03328 3.7132 11.277 6.20622 13.761C8.69924 16.245 11.9488 17.8276 15.4415 18.2588H15.7582C16.3727 18.2597 16.966 18.0342 17.4248 17.6255C17.6885 17.3897 17.8991 17.1006 18.0427 16.7774C18.1864 16.4542 18.2598 16.1042 18.2582 15.7505V13.2505C18.248 12.6716 18.0372 12.1143 17.6618 11.6735C17.2864 11.2328 16.7697 10.936 16.1998 10.8338ZM16.6165 15.8338C16.6164 15.9521 16.591 16.069 16.5422 16.1768C16.4933 16.2846 16.4221 16.3807 16.3332 16.4588C16.2403 16.5396 16.1315 16.6 16.0137 16.6359C15.896 16.6718 15.772 16.6824 15.6498 16.6671C12.5289 16.267 9.63004 14.8392 7.41044 12.609C5.19084 10.3789 3.77685 7.47324 3.39151 4.35046C3.37824 4.22839 3.38987 4.1049 3.42567 3.98745C3.46148 3.87 3.52073 3.76103 3.59984 3.66713C3.67793 3.57824 3.77406 3.50699 3.88182 3.45814C3.98959 3.40929 4.10652 3.38394 4.22484 3.38379H6.72484C6.91863 3.37948 7.10786 3.44286 7.25996 3.56302C7.41206 3.68318 7.51751 3.8526 7.55817 4.04213C7.59151 4.2699 7.63317 4.4949 7.68317 4.71713C7.77944 5.15641 7.90756 5.58811 8.06651 6.00879L6.89984 6.55046C6.80009 6.59623 6.71036 6.66125 6.6358 6.74179C6.56125 6.82233 6.50334 6.91681 6.4654 7.01979C6.42746 7.12277 6.41023 7.23224 6.41471 7.34189C6.41919 7.45155 6.44529 7.55925 6.49151 7.65879C7.69084 10.2278 9.75588 12.2928 12.3248 13.4921C12.5277 13.5755 12.7553 13.5755 12.9582 13.4921C13.0621 13.455 13.1576 13.3975 13.2391 13.3231C13.3207 13.2487 13.3866 13.1589 13.4332 13.0588L13.9498 11.8921C14.3806 12.0462 14.8203 12.1742 15.2665 12.2755C15.4887 12.3255 15.7137 12.3671 15.9415 12.4005C16.131 12.4411 16.3005 12.5466 16.4206 12.6987C16.5408 12.8508 16.6042 13.04 16.5998 13.2338L16.6165 15.8338Z" fill="#262A2E"/>
</svg>
