<svg width="20" height="20" viewBox="0 0 20 20" fill="none" xmlns="http://www.w3.org/2000/svg">
<path d="M6.66655 9.16699C6.50174 9.16699 6.34062 9.21587 6.20358 9.30743C6.06654 9.399 5.95973 9.52915 5.89666 9.68142C5.83358 9.83369 5.81708 10.0012 5.84923 10.1629C5.88139 10.3246 5.96076 10.473 6.0773 10.5896C6.19384 10.7061 6.34233 10.7855 6.50398 10.8176C6.66563 10.8498 6.83319 10.8333 6.98546 10.7702C7.13773 10.7072 7.26788 10.6003 7.35945 10.4633C7.45101 10.3263 7.49989 10.1651 7.49989 10.0003C7.49989 9.77931 7.41209 9.56735 7.25581 9.41107C7.09953 9.25479 6.88757 9.16699 6.66655 9.16699ZM9.99989 9.16699C9.83507 9.16699 9.67395 9.21587 9.53691 9.30743C9.39987 9.399 9.29306 9.52915 9.22999 9.68142C9.16692 9.83369 9.15041 10.0012 9.18257 10.1629C9.21472 10.3246 9.29409 10.473 9.41063 10.5896C9.52718 10.7061 9.67566 10.7855 9.83731 10.8176C9.99896 10.8498 10.1665 10.8333 10.3188 10.7702C10.4711 10.7072 10.6012 10.6003 10.6928 10.4633C10.7843 10.3263 10.8332 10.1651 10.8332 10.0003C10.8332 9.77931 10.7454 9.56735 10.5891 9.41107C10.4329 9.25479 10.2209 9.16699 9.99989 9.16699ZM13.3332 9.16699C13.1684 9.16699 13.0073 9.21587 12.8702 9.30743C12.7332 9.399 12.6264 9.52915 12.5633 9.68142C12.5002 9.83369 12.4837 10.0012 12.5159 10.1629C12.5481 10.3246 12.6274 10.473 12.744 10.5896C12.8605 10.7061 13.009 10.7855 13.1706 10.8176C13.3323 10.8498 13.4999 10.8333 13.6521 10.7702C13.8044 10.7072 13.9345 10.6003 14.0261 10.4633C14.1177 10.3263 14.1666 10.1651 14.1666 10.0003C14.1666 9.77931 14.0788 9.56735 13.9225 9.41107C13.7662 9.25479 13.5542 9.16699 13.3332 9.16699ZM9.99989 1.66699C8.90554 1.66699 7.82191 1.88254 6.81086 2.30133C5.79981 2.72012 4.88115 3.33395 4.10733 4.10777C2.54453 5.67057 1.66656 7.79019 1.66656 10.0003C1.65927 11.9246 2.32555 13.7908 3.54989 15.2753L1.88322 16.942C1.76759 17.0592 1.68926 17.208 1.65812 17.3696C1.62697 17.5313 1.64441 17.6986 1.70822 17.8503C1.77744 18.0003 1.88964 18.1263 2.03059 18.2123C2.17155 18.2984 2.33489 18.3406 2.49989 18.3337H9.99989C12.21 18.3337 14.3296 17.4557 15.8924 15.8929C17.4552 14.3301 18.3332 12.2105 18.3332 10.0003C18.3332 7.79019 17.4552 5.67057 15.8924 4.10777C14.3296 2.54497 12.21 1.66699 9.99989 1.66699ZM9.99989 16.667H4.50822L5.28322 15.892C5.36196 15.8148 5.4246 15.7228 5.46752 15.6212C5.51043 15.5197 5.53276 15.4106 5.53322 15.3003C5.53009 15.0805 5.44023 14.8709 5.28322 14.717C4.19204 13.627 3.51253 12.1924 3.36046 10.6577C3.20839 9.12287 3.59317 7.58283 4.44924 6.29993C5.30531 5.01702 6.57971 4.07062 8.05532 3.62197C9.53092 3.17332 11.1164 3.25016 12.5417 3.83942C13.967 4.42868 15.1439 5.49389 15.8719 6.85357C16.5999 8.21325 16.8339 9.78328 16.5342 11.2962C16.2344 12.8091 15.4193 14.1712 14.2278 15.1505C13.0364 16.1299 11.5422 16.6658 9.99989 16.667Z" fill="#262A2E"/>
</svg>
