<svg width="31" height="30" viewBox="0 0 31 30" fill="none" xmlns="http://www.w3.org/2000/svg">
<path d="M10.01 3.75V6.25H7.50999V11.25C7.50999 12.15 7.73499 12.9833 8.18499 13.75C8.63499 14.5167 9.24333 15.125 10.01 15.575C10.7767 16.025 11.61 16.25 12.51 16.25C13.41 16.25 14.2433 16.025 15.01 15.575C15.7767 15.125 16.385 14.5167 16.835 13.75C17.285 12.9833 17.51 12.15 17.51 11.25V6.25H15.01V3.75H18.76C19.11 3.75 19.4058 3.87083 19.6475 4.1125C19.8892 4.35417 20.01 4.65 20.01 5V11.25C20.01 12.4667 19.735 13.6083 19.185 14.675C18.6517 15.725 17.9058 16.6 16.9475 17.3C15.9892 18 14.9267 18.45 13.76 18.65V20.625C13.76 21.425 13.9558 22.1583 14.3475 22.825C14.7392 23.4917 15.2683 24.0208 15.935 24.4125C16.6017 24.8042 17.335 25 18.135 25C19.0517 25 19.885 24.7375 20.635 24.2125C21.385 23.6875 21.9183 23.0083 22.235 22.175C21.5683 21.875 21.0308 21.4167 20.6225 20.8C20.2142 20.1833 20.01 19.5 20.01 18.75C20.01 18.0667 20.1767 17.4375 20.51 16.8625C20.8433 16.2875 21.2975 15.8333 21.8725 15.5C22.4475 15.1667 23.0767 15 23.76 15C24.4433 15 25.0725 15.1667 25.6475 15.5C26.2225 15.8333 26.6767 16.2875 27.01 16.8625C27.3433 17.4375 27.51 18.0667 27.51 18.75C27.51 19.6 27.2558 20.3583 26.7475 21.025C26.2392 21.6917 25.585 22.1333 24.785 22.35C24.535 23.3333 24.085 24.2167 23.435 25C22.785 25.7833 22.0017 26.3958 21.085 26.8375C20.1683 27.2792 19.185 27.5 18.135 27.5C16.885 27.5 15.735 27.1917 14.685 26.575C13.635 25.9583 12.8017 25.125 12.185 24.075C11.5683 23.025 11.26 21.875 11.26 20.625V18.65C10.0933 18.45 9.03083 18 8.07249 17.3C7.11416 16.6 6.36833 15.725 5.83499 14.675C5.28499 13.6083 5.00999 12.4667 5.00999 11.25V5C5.00999 4.65 5.13083 4.35417 5.37249 4.1125C5.61416 3.87083 5.90999 3.75 6.25999 3.75H10.01ZM23.76 17.5C23.41 17.5 23.1142 17.6208 22.8725 17.8625C22.6308 18.1042 22.51 18.4 22.51 18.75C22.51 19.1 22.6308 19.3958 22.8725 19.6375C23.1142 19.8792 23.41 20 23.76 20C24.11 20 24.4058 19.8792 24.6475 19.6375C24.8892 19.3958 25.01 19.1 25.01 18.75C25.01 18.4 24.8892 18.1042 24.6475 17.8625C24.4058 17.6208 24.11 17.5 23.76 17.5Z" fill="#53C797"/>
</svg>
