<svg width="30" height="30" viewBox="0 0 30 30" fill="none" xmlns="http://www.w3.org/2000/svg">
<path d="M16.7629 15L24.6379 7.13749C24.8733 6.90211 25.0055 6.58286 25.0055 6.24999C25.0055 5.91711 24.8733 5.59787 24.6379 5.36249C24.4025 5.12711 24.0833 4.99487 23.7504 4.99487C23.4175 4.99487 23.0983 5.12711 22.8629 5.36249L15.0004 13.2375L7.13791 5.36249C6.90253 5.12711 6.58329 4.99487 6.25041 4.99487C5.91753 4.99487 5.59829 5.12711 5.36291 5.36249C5.12753 5.59787 4.9953 5.91711 4.9953 6.24999C4.9953 6.58286 5.12753 6.90211 5.36291 7.13749L13.2379 15L5.36291 22.8625C5.24575 22.9787 5.15276 23.1169 5.0893 23.2693C5.02584 23.4216 4.99316 23.585 4.99316 23.75C4.99316 23.915 5.02584 24.0784 5.0893 24.2307C5.15276 24.383 5.24575 24.5213 5.36291 24.6375C5.47912 24.7546 5.61737 24.8476 5.76969 24.9111C5.92202 24.9746 6.0854 25.0072 6.25041 25.0072C6.41543 25.0072 6.57881 24.9746 6.73113 24.9111C6.88346 24.8476 7.02171 24.7546 7.13791 24.6375L15.0004 16.7625L22.8629 24.6375C22.9791 24.7546 23.1174 24.8476 23.2697 24.9111C23.422 24.9746 23.5854 25.0072 23.7504 25.0072C23.9154 25.0072 24.0788 24.9746 24.2311 24.9111C24.3835 24.8476 24.5217 24.7546 24.6379 24.6375C24.7551 24.5213 24.8481 24.383 24.9115 24.2307C24.975 24.0784 25.0077 23.915 25.0077 23.75C25.0077 23.585 24.975 23.4216 24.9115 23.2693C24.8481 23.1169 24.7551 22.9787 24.6379 22.8625L16.7629 15Z" fill="#6F6F6F"/>
</svg>
