<svg width="31" height="30" viewBox="0 0 31 30" fill="none" xmlns="http://www.w3.org/2000/svg">
<path d="M21.26 2.5V5H25.01C25.36 5 25.6558 5.12083 25.8975 5.3625C26.1392 5.60417 26.26 5.9 26.26 6.25V26.25C26.26 26.6 26.1392 26.8958 25.8975 27.1375C25.6558 27.3792 25.36 27.5 25.01 27.5H5.00999C4.65999 27.5 4.36416 27.3792 4.12249 27.1375C3.88083 26.8958 3.75999 26.6 3.75999 26.25V6.25C3.75999 5.9 3.88083 5.60417 4.12249 5.3625C4.36416 5.12083 4.65999 5 5.00999 5H8.75999V2.5H21.26ZM8.75999 7.5H6.25999V25H23.76V7.5H21.26V10H8.75999V7.5ZM16.26 13.75V16.25H18.76V18.75H16.26V21.25H13.76V18.75H11.26V16.25H13.76V13.75H16.26ZM18.76 5H11.26V7.5H18.76V5Z" fill="#6C757D"/>
</svg>
