<svg width="13" height="14" viewBox="0 0 13 14" fill="none" xmlns="http://www.w3.org/2000/svg">
<path d="M6.51001 13.05C5.37668 13.05 4.32668 12.7667 3.36001 12.2C2.41834 11.6417 1.66834 10.8917 1.11001 9.95005C0.543343 8.98338 0.26001 7.93338 0.26001 6.80005C0.26001 5.66672 0.543343 4.61672 1.11001 3.65005C1.66834 2.70838 2.41834 1.95838 3.36001 1.40005C4.32668 0.833382 5.37668 0.550049 6.51001 0.550049C7.64334 0.550049 8.69334 0.833382 9.66001 1.40005C10.6017 1.95838 11.3517 2.70838 11.91 3.65005C12.4767 4.61672 12.76 5.66672 12.76 6.80005C12.76 7.93338 12.4767 8.98338 11.91 9.95005C11.3517 10.8917 10.6017 11.6417 9.66001 12.2C8.69334 12.7667 7.64334 13.05 6.51001 13.05ZM6.51001 11.8C7.41834 11.8 8.26001 11.5709 9.03501 11.1125C9.78501 10.6709 10.3808 10.075 10.8225 9.32505C11.2808 8.55005 11.51 7.70838 11.51 6.80005C11.51 5.89172 11.2808 5.05005 10.8225 4.27505C10.3808 3.52505 9.78501 2.92922 9.03501 2.48755C8.26001 2.02921 7.41834 1.80005 6.51001 1.80005C5.60168 1.80005 4.76001 2.02921 3.98501 2.48755C3.23501 2.92922 2.63918 3.52505 2.19751 4.27505C1.73918 5.05005 1.51001 5.89172 1.51001 6.80005C1.51001 7.70838 1.73918 8.55005 2.19751 9.32505C2.63918 10.075 3.23501 10.6709 3.98501 11.1125C4.76001 11.5709 5.60168 11.8 6.51001 11.8ZM4.32251 8.05005H7.76001C7.84334 8.05005 7.91626 8.0188 7.97876 7.9563C8.04126 7.8938 8.07251 7.82088 8.07251 7.73755C8.07251 7.65422 8.04126 7.5813 7.97876 7.5188C7.91626 7.4563 7.84334 7.42505 7.76001 7.42505H5.26001C4.97668 7.42505 4.71626 7.35422 4.47876 7.21255C4.24126 7.07088 4.05168 6.8813 3.91001 6.6438C3.76834 6.4063 3.69751 6.14588 3.69751 5.86255C3.69751 5.57922 3.76834 5.3188 3.91001 5.0813C4.05168 4.8438 4.24126 4.65422 4.47876 4.51255C4.71626 4.37088 4.97668 4.30005 5.26001 4.30005H5.88501V3.05005H7.13501V4.30005H8.69751V5.55005H5.26001C5.17668 5.55005 5.10376 5.5813 5.04126 5.6438C4.97876 5.7063 4.94751 5.77922 4.94751 5.86255C4.94751 5.94588 4.97876 6.0188 5.04126 6.0813C5.10376 6.1438 5.17668 6.17505 5.26001 6.17505H7.76001C8.04334 6.17505 8.30376 6.24588 8.54126 6.38755C8.77876 6.52922 8.96834 6.7188 9.11001 6.9563C9.25168 7.1938 9.32251 7.45422 9.32251 7.73755C9.32251 8.02088 9.25168 8.2813 9.11001 8.5188C8.96834 8.7563 8.77876 8.94588 8.54126 9.08755C8.30376 9.22922 8.04334 9.30005 7.76001 9.30005H7.13501V10.55H5.88501V9.30005H4.32251V8.05005Z" fill="#396CF0"/>
</svg>
