<svg width="20" height="20" viewBox="0 0 20 20" fill="none" xmlns="http://www.w3.org/2000/svg">
<g opacity="0.5">
<rect x="0.5" y="19.5" width="19" height="19" rx="1.5" transform="rotate(-90 0.5 19.5)" stroke="#6F6F6F"/>
<path d="M10.0004 10.5913L7.0504 7.64133C6.89427 7.48612 6.68306 7.399 6.4629 7.399C6.24275 7.399 6.03154 7.48612 5.8754 7.64133C5.7973 7.7188 5.7353 7.81096 5.693 7.91251C5.65069 8.01406 5.62891 8.12298 5.62891 8.23299C5.62891 8.343 5.65069 8.45193 5.693 8.55347C5.7353 8.65502 5.7973 8.74719 5.8754 8.82466L9.40874 12.358C9.48621 12.4361 9.57837 12.4981 9.67992 12.5404C9.78147 12.5827 9.89039 12.6045 10.0004 12.6045C10.1104 12.6045 10.2193 12.5827 10.3209 12.5404C10.4224 12.4981 10.5146 12.4361 10.5921 12.358L14.1671 8.82466C14.2443 8.74679 14.3054 8.65445 14.3469 8.55292C14.3883 8.45138 14.4094 8.34267 14.4087 8.23299C14.4094 8.12332 14.3883 8.0146 14.3469 7.91307C14.3054 7.81154 14.2443 7.71919 14.1671 7.64133C14.0109 7.48612 13.7997 7.399 13.5796 7.399C13.3594 7.399 13.1482 7.48612 12.9921 7.64133L10.0004 10.5913Z" fill="#6F6F6F"/>
</g>
</svg>
