<svg width="20" height="21" viewBox="0 0 20 21" fill="none" xmlns="http://www.w3.org/2000/svg">
<path d="M10.0004 9.90843L7.0504 12.8584C6.89427 13.0136 6.68306 13.1008 6.4629 13.1008C6.24275 13.1008 6.03154 13.0136 5.8754 12.8584C5.7973 12.781 5.7353 12.6888 5.693 12.5872C5.65069 12.4857 5.62891 12.3768 5.62891 12.2668C5.62891 12.1568 5.65069 12.0478 5.693 11.9463C5.7353 11.8447 5.7973 11.7526 5.8754 11.6751L9.40874 8.14176C9.48621 8.06366 9.57837 8.00166 9.67992 7.95935C9.78147 7.91705 9.89039 7.89526 10.0004 7.89526C10.1104 7.89526 10.2193 7.91705 10.3209 7.95935C10.4224 8.00166 10.5146 8.06366 10.5921 8.14176L14.1671 11.6751C14.2443 11.753 14.3054 11.8453 14.3469 11.9468C14.3883 12.0484 14.4094 12.1571 14.4087 12.2668C14.4094 12.3764 14.3883 12.4852 14.3469 12.5867C14.3054 12.6882 14.2443 12.7806 14.1671 12.8584C14.0109 13.0136 13.7997 13.1008 13.5796 13.1008C13.3594 13.1008 13.1482 13.0136 12.9921 12.8584L10.0004 9.90843Z" fill="#6F6F6F"/>
</svg>
