<svg width="16" height="16" viewBox="0 0 16 16" fill="none" xmlns="http://www.w3.org/2000/svg">
<g clip-path="url(#clip0_1_3196)">
<path d="M7.51001 13.3625L10.61 10.2625C11.1683 9.70417 11.5475 9.04583 11.7475 8.2875C11.9392 7.54583 11.9392 6.80417 11.7475 6.0625C11.5475 5.30417 11.1663 4.64375 10.6038 4.08125C10.0413 3.51875 9.38084 3.1375 8.62251 2.9375C7.88084 2.74583 7.13918 2.74583 6.39751 2.9375C5.63918 3.1375 4.97876 3.51875 4.41626 4.08125C3.85376 4.64375 3.47251 5.30417 3.27251 6.0625C3.08084 6.80417 3.08084 7.54583 3.27251 8.2875C3.47251 9.04583 3.85584 9.70833 4.42251 10.275L7.51001 13.3625ZM7.51001 15.125L3.53501 11.15C2.81001 10.4333 2.32251 9.58333 2.07251 8.6C1.82251 7.65 1.82251 6.7 2.07251 5.75C2.32251 4.76667 2.80793 3.91458 3.52876 3.19375C4.24959 2.47292 5.10168 1.9875 6.08501 1.7375C7.03501 1.4875 7.98501 1.4875 8.93501 1.7375C9.91834 1.9875 10.7704 2.47292 11.4913 3.19375C12.2121 3.91458 12.6975 4.76667 12.9475 5.75C13.1975 6.7 13.1975 7.65 12.9475 8.6C12.6975 9.58333 12.21 10.4333 11.485 11.15L7.51001 15.125ZM7.51001 8.425C7.85168 8.425 8.14543 8.30208 8.39126 8.05625C8.63709 7.81042 8.76001 7.51667 8.76001 7.175C8.76001 6.83333 8.63709 6.53958 8.39126 6.29375C8.14543 6.04792 7.85168 5.925 7.51001 5.925C7.16834 5.925 6.87459 6.04792 6.62876 6.29375C6.38293 6.53958 6.26001 6.83333 6.26001 7.175C6.26001 7.51667 6.38293 7.81042 6.62876 8.05625C6.87459 8.30208 7.16834 8.425 7.51001 8.425ZM7.51001 9.675C7.06001 9.675 6.64334 9.5625 6.26001 9.3375C5.87668 9.1125 5.57251 8.80833 5.34751 8.425C5.12251 8.04167 5.01001 7.625 5.01001 7.175C5.01001 6.725 5.12251 6.30833 5.34751 5.925C5.57251 5.54167 5.87668 5.2375 6.26001 5.0125C6.64334 4.7875 7.06001 4.675 7.51001 4.675C7.96001 4.675 8.37668 4.7875 8.76001 5.0125C9.14334 5.2375 9.44751 5.54167 9.67251 5.925C9.89751 6.30833 10.01 6.725 10.01 7.175C10.01 7.625 9.89751 8.04167 9.67251 8.425C9.44751 8.80833 9.14334 9.1125 8.76001 9.3375C8.37668 9.5625 7.96001 9.675 7.51001 9.675Z" fill="#396CF0"/>
</g>
<defs>
<clipPath id="clip0_1_3196">
<rect width="15.02" height="15" fill="white" transform="matrix(1 0 0 -1 0 15.3)"/>
</clipPath>
</defs>
</svg>
