<svg width="18" height="18" viewBox="0 0 18 18" fill="none" xmlns="http://www.w3.org/2000/svg">
<rect width="18" height="18" rx="9" fill="#3761E9"/>
<path d="M7.28245 4.71745C7.21273 4.64716 7.12978 4.59136 7.03839 4.55329C6.94699 4.51521 6.84896 4.49561 6.74995 4.49561C6.65095 4.49561 6.55292 4.51521 6.46152 4.55329C6.37013 4.59136 6.28718 4.64716 6.21745 4.71745L2.46745 8.46745C2.39716 8.53718 2.34136 8.62013 2.30329 8.71152C2.26521 8.80292 2.24561 8.90095 2.24561 8.99995C2.24561 9.09896 2.26521 9.19699 2.30329 9.28839C2.34136 9.37978 2.39716 9.46273 2.46745 9.53245L6.21745 13.2825C6.28718 13.3527 6.37013 13.4085 6.46152 13.4466C6.55292 13.4847 6.65095 13.5043 6.74995 13.5043C6.84896 13.5043 6.94699 13.4847 7.03839 13.4466C7.12978 13.4085 7.21273 13.3527 7.28245 13.2825C7.35275 13.2127 7.40855 13.1298 7.44662 13.0384C7.4847 12.947 7.5043 12.849 7.5043 12.75C7.5043 12.6509 7.4847 12.5529 7.44662 12.4615C7.40855 12.3701 7.35275 12.2872 7.28245 12.2175L4.05745 8.99995L7.28245 5.78245C7.35275 5.71273 7.40855 5.62978 7.44662 5.53839C7.4847 5.44699 7.5043 5.34896 7.5043 5.24995C7.5043 5.15095 7.4847 5.05292 7.44662 4.96152C7.40855 4.87013 7.35275 4.78718 7.28245 4.71745ZM15.5325 8.46745L11.7825 4.71745C11.7125 4.64753 11.6295 4.59205 11.5381 4.55421C11.4468 4.51636 11.3488 4.49689 11.25 4.49689C11.0502 4.49689 10.8587 4.57623 10.7175 4.71745C10.6475 4.78738 10.5921 4.8704 10.5542 4.96177C10.5164 5.05313 10.4969 5.15106 10.4969 5.24995C10.4969 5.44968 10.5762 5.64123 10.7175 5.78245L13.9425 8.99995L10.7175 12.2175C10.6472 12.2872 10.5914 12.3701 10.5533 12.4615C10.5152 12.5529 10.4956 12.6509 10.4956 12.75C10.4956 12.849 10.5152 12.947 10.5533 13.0384C10.5914 13.1298 10.6472 13.2127 10.7175 13.2825C10.7872 13.3527 10.8701 13.4085 10.9615 13.4466C11.0529 13.4847 11.1509 13.5043 11.25 13.5043C11.349 13.5043 11.447 13.4847 11.5384 13.4466C11.6298 13.4085 11.7127 13.3527 11.7825 13.2825L15.5325 9.53245C15.6027 9.46273 15.6585 9.37978 15.6966 9.28839C15.7347 9.19699 15.7543 9.09896 15.7543 8.99995C15.7543 8.90095 15.7347 8.80292 15.6966 8.71152C15.6585 8.62013 15.6027 8.53718 15.5325 8.46745Z" fill="white"/>
</svg>
