<svg width="18" height="18" viewBox="0 0 18 18" fill="none" xmlns="http://www.w3.org/2000/svg">
<rect width="18" height="18" rx="9" fill="#6F6F6F"/>
<path d="M7.28294 4.71794C7.21322 4.64765 7.13027 4.59185 7.03888 4.55377C6.94748 4.5157 6.84945 4.49609 6.75044 4.49609C6.65143 4.49609 6.5534 4.5157 6.46201 4.55377C6.37062 4.59185 6.28766 4.64765 6.21794 4.71794L2.46794 8.46794C2.39765 8.53766 2.34185 8.62062 2.30377 8.71201C2.2657 8.8034 2.24609 8.90143 2.24609 9.00044C2.24609 9.09945 2.2657 9.19748 2.30377 9.28888C2.34185 9.38027 2.39765 9.46322 2.46794 9.53294L6.21794 13.2829C6.28766 13.3532 6.37062 13.409 6.46201 13.4471C6.5534 13.4852 6.65143 13.5048 6.75044 13.5048C6.84945 13.5048 6.94748 13.4852 7.03888 13.4471C7.13027 13.409 7.21322 13.3532 7.28294 13.2829C7.35324 13.2132 7.40903 13.1303 7.44711 13.0389C7.48519 12.9475 7.50479 12.8495 7.50479 12.7504C7.50479 12.6514 7.48519 12.5534 7.44711 12.462C7.40903 12.3706 7.35324 12.2877 7.28294 12.2179L4.05794 9.00044L7.28294 5.78294C7.35324 5.71322 7.40903 5.63027 7.44711 5.53888C7.48519 5.44748 7.50479 5.34945 7.50479 5.25044C7.50479 5.15143 7.48519 5.0534 7.44711 4.96201C7.40903 4.87062 7.35324 4.78766 7.28294 4.71794ZM15.5329 8.46794L11.7829 4.71794C11.713 4.64801 11.63 4.59254 11.5386 4.5547C11.4473 4.51685 11.3493 4.49737 11.2504 4.49737C11.0507 4.49737 10.8592 4.57671 10.7179 4.71794C10.648 4.78787 10.5925 4.87089 10.5547 4.96226C10.5169 5.05362 10.4974 5.15155 10.4974 5.25044C10.4974 5.45017 10.5767 5.64171 10.7179 5.78294L13.9429 9.00044L10.7179 12.2179C10.6476 12.2877 10.5919 12.3706 10.5538 12.462C10.5157 12.5534 10.4961 12.6514 10.4961 12.7504C10.4961 12.8495 10.5157 12.9475 10.5538 13.0389C10.5919 13.1303 10.6476 13.2132 10.7179 13.2829C10.7877 13.3532 10.8706 13.409 10.962 13.4471C11.0534 13.4852 11.1514 13.5048 11.2504 13.5048C11.3495 13.5048 11.4475 13.4852 11.5389 13.4471C11.6303 13.409 11.7132 13.3532 11.7829 13.2829L15.5329 9.53294C15.6032 9.46322 15.659 9.38027 15.6971 9.28888C15.7352 9.19748 15.7548 9.09945 15.7548 9.00044C15.7548 8.90143 15.7352 8.8034 15.6971 8.71201C15.659 8.62062 15.6032 8.53766 15.5329 8.46794Z" fill="white"/>
</svg>
