<svg width="20" height="20" viewBox="0 0 20 20" fill="none" xmlns="http://www.w3.org/2000/svg">
<path d="M15.8337 3.33325H4.16699C3.50395 3.33325 2.86807 3.59664 2.39923 4.06549C1.93038 4.53433 1.66699 5.17021 1.66699 5.83325V14.1666C1.66699 14.8296 1.93038 15.4655 2.39923 15.9344C2.86807 16.4032 3.50395 16.6666 4.16699 16.6666H15.8337C16.4967 16.6666 17.1326 16.4032 17.6014 15.9344C18.0703 15.4655 18.3337 14.8296 18.3337 14.1666V5.83325C18.3337 5.17021 18.0703 4.53433 17.6014 4.06549C17.1326 3.59664 16.4967 3.33325 15.8337 3.33325ZM15.492 4.99992L10.592 9.89992C10.5145 9.97803 10.4224 10.04 10.3208 10.0823C10.2193 10.1246 10.1103 10.1464 10.0003 10.1464C9.89032 10.1464 9.78139 10.1246 9.67984 10.0823C9.5783 10.04 9.48613 9.97803 9.40866 9.89992L4.50866 4.99992H15.492ZM16.667 14.1666C16.667 14.3876 16.5792 14.5996 16.4229 14.7558C16.2666 14.9121 16.0547 14.9999 15.8337 14.9999H4.16699C3.94598 14.9999 3.73402 14.9121 3.57774 14.7558C3.42146 14.5996 3.33366 14.3876 3.33366 14.1666V6.17492L8.23366 11.0749C8.70241 11.5431 9.33782 11.8061 10.0003 11.8061C10.6628 11.8061 11.2982 11.5431 11.767 11.0749L16.667 6.17492V14.1666Z" fill="#6F6F6F"/>
</svg>
