<svg width="24" height="24" viewBox="0 0 24 24" fill="none" xmlns="http://www.w3.org/2000/svg">
<g opacity="0.5">
<path d="M21.9203 11.6002C19.9003 6.91024 16.1003 4.00024 12.0003 4.00024C7.90031 4.00024 4.10031 6.91024 2.08031 11.6002C2.02525 11.7264 1.99683 11.8626 1.99683 12.0002C1.99683 12.1379 2.02525 12.2741 2.08031 12.4002C4.10031 17.0902 7.90031 20.0002 12.0003 20.0002C16.1003 20.0002 19.9003 17.0902 21.9203 12.4002C21.9754 12.2741 22.0038 12.1379 22.0038 12.0002C22.0038 11.8626 21.9754 11.7264 21.9203 11.6002V11.6002ZM12.0003 18.0002C8.82031 18.0002 5.83031 15.7102 4.10031 12.0002C5.83031 8.29024 8.82031 6.00024 12.0003 6.00024C15.1803 6.00024 18.1703 8.29024 19.9003 12.0002C18.1703 15.7102 15.1803 18.0002 12.0003 18.0002ZM12.0003 8.00024C11.2092 8.00024 10.4358 8.23484 9.77803 8.67437C9.12023 9.11389 8.60754 9.73861 8.30479 10.4695C8.00204 11.2004 7.92283 12.0047 8.07717 12.7806C8.23151 13.5565 8.61247 14.2693 9.17188 14.8287C9.73129 15.3881 10.444 15.769 11.2199 15.9234C11.9959 16.0777 12.8001 15.9985 13.531 15.6958C14.2619 15.393 14.8867 14.8803 15.3262 14.2225C15.7657 13.5647 16.0003 12.7914 16.0003 12.0002C16.0003 10.9394 15.5789 9.92196 14.8287 9.17182C14.0786 8.42167 13.0612 8.00024 12.0003 8.00024V8.00024ZM12.0003 14.0002C11.6047 14.0002 11.2181 13.8829 10.8892 13.6632C10.5603 13.4434 10.3039 13.1311 10.1526 12.7656C10.0012 12.4002 9.96157 11.998 10.0387 11.6101C10.1159 11.2221 10.3064 10.8657 10.5861 10.586C10.8658 10.3063 11.2222 10.1158 11.6101 10.0387C11.9981 9.9615 12.4002 10.0011 12.7657 10.1525C13.1311 10.3039 13.4435 10.5602 13.6632 10.8891C13.883 11.218 14.0003 11.6047 14.0003 12.0002C14.0003 12.5307 13.7896 13.0394 13.4145 13.4145C13.0395 13.7895 12.5307 14.0002 12.0003 14.0002Z" fill="#6F6F6F"/>
</g>
</svg>
