<svg width="20" height="21" viewBox="0 0 20 21" fill="none" xmlns="http://www.w3.org/2000/svg">
<g opacity="0.5">
<path d="M18.3337 6.53367C18.3343 6.424 18.3133 6.31528 18.2718 6.21375C18.2303 6.11222 18.1692 6.01987 18.092 5.94201L14.5587 2.40867C14.4808 2.33144 14.3885 2.27033 14.2869 2.22886C14.1854 2.18739 14.0767 2.16637 13.967 2.16701C13.8573 2.16637 13.7486 2.18739 13.6471 2.22886C13.5456 2.27033 13.4532 2.33144 13.3753 2.40867L11.017 4.76701L1.90867 13.8753C1.83144 13.9532 1.77033 14.0456 1.72886 14.1471C1.68739 14.2486 1.66637 14.3573 1.66701 14.467V18.0003C1.66701 18.2214 1.7548 18.4333 1.91108 18.5896C2.06736 18.7459 2.27933 18.8337 2.50034 18.8337H6.03367C6.15028 18.84 6.26692 18.8218 6.37602 18.7801C6.48513 18.7385 6.58427 18.6744 6.66701 18.592L15.7253 9.48367L18.092 7.16701C18.1681 7.08624 18.23 6.99328 18.2753 6.89201C18.2834 6.82558 18.2834 6.75843 18.2753 6.69201C18.2792 6.65321 18.2792 6.61413 18.2753 6.57534L18.3337 6.53367ZM5.69201 17.167H3.33367V14.8087L11.6087 6.53367L13.967 8.89201L5.69201 17.167ZM15.142 7.71701L12.7837 5.35867L13.967 4.18367L16.317 6.53367L15.142 7.71701Z" fill="#6F6F6F"/>
<path d="M18.3337 6.53367C18.3343 6.424 18.3133 6.31528 18.2718 6.21375C18.2303 6.11222 18.1692 6.01987 18.092 5.94201L14.5587 2.40867C14.4808 2.33144 14.3885 2.27033 14.2869 2.22886C14.1854 2.18739 14.0767 2.16637 13.967 2.16701C13.8573 2.16637 13.7486 2.18739 13.6471 2.22886C13.5456 2.27033 13.4532 2.33144 13.3753 2.40867L11.017 4.76701L1.90867 13.8753C1.83144 13.9532 1.77033 14.0456 1.72886 14.1471C1.68739 14.2486 1.66637 14.3573 1.66701 14.467V18.0003C1.66701 18.2214 1.7548 18.4333 1.91108 18.5896C2.06736 18.7459 2.27933 18.8337 2.50034 18.8337H6.03367C6.15028 18.84 6.26692 18.8218 6.37602 18.7801C6.48513 18.7385 6.58427 18.6744 6.66701 18.592L15.7253 9.48367L18.092 7.16701C18.1681 7.08624 18.23 6.99328 18.2753 6.89201C18.2834 6.82558 18.2834 6.75843 18.2753 6.69201C18.2792 6.65321 18.2792 6.61413 18.2753 6.57534L18.3337 6.53367ZM5.69201 17.167H3.33367V14.8087L11.6087 6.53367L13.967 8.89201L5.69201 17.167ZM15.142 7.71701L12.7837 5.35867L13.967 4.18367L16.317 6.53367L15.142 7.71701Z" fill="black" fill-opacity="0.2"/>
</g>
</svg>
