<svg width="20" height="21" viewBox="0 0 20 21" fill="none" xmlns="http://www.w3.org/2000/svg">
<path d="M15.833 9.66683H10.833V4.66683C10.833 4.44582 10.7452 4.23385 10.5889 4.07757C10.4326 3.92129 10.2207 3.8335 9.99967 3.8335C9.77866 3.8335 9.5667 3.92129 9.41042 4.07757C9.25414 4.23385 9.16634 4.44582 9.16634 4.66683V9.66683H4.16634C3.94533 9.66683 3.73337 9.75463 3.57709 9.91091C3.42081 10.0672 3.33301 10.2791 3.33301 10.5002C3.33301 10.7212 3.42081 10.9331 3.57709 11.0894C3.73337 11.2457 3.94533 11.3335 4.16634 11.3335H9.16634V16.3335C9.16634 16.5545 9.25414 16.7665 9.41042 16.9228C9.5667 17.079 9.77866 17.1668 9.99967 17.1668C10.2207 17.1668 10.4326 17.079 10.5889 16.9228C10.7452 16.7665 10.833 16.5545 10.833 16.3335V11.3335H15.833C16.054 11.3335 16.266 11.2457 16.4223 11.0894C16.5785 10.9331 16.6663 10.7212 16.6663 10.5002C16.6663 10.2791 16.5785 10.0672 16.4223 9.91091C16.266 9.75463 16.054 9.66683 15.833 9.66683Z" fill="white"/>
</svg>
