<svg width="24" height="24" viewBox="0 0 24 24" fill="none" xmlns="http://www.w3.org/2000/svg">
<path d="M17.71 12.71L13.71 16.71C13.6168 16.8032 13.5061 16.8772 13.3842 16.9277C13.2624 16.9781 13.1319 17.0041 13 17.0041C12.8681 17.0041 12.7376 16.9781 12.6158 16.9277C12.4939 16.8772 12.3832 16.8032 12.29 16.71C12.1968 16.6168 12.1228 16.5061 12.0723 16.3842C12.0219 16.2624 11.9959 16.1319 11.9959 16C11.9959 15.8681 12.0219 15.7376 12.0723 15.6158C12.1228 15.4939 12.1968 15.3832 12.29 15.29L14.59 13H3C2.73478 13 2.48043 12.8946 2.29289 12.7071C2.10536 12.5196 2 12.2652 2 12C2 11.7348 2.10536 11.4804 2.29289 11.2929C2.48043 11.1054 2.73478 11 3 11H14.59L12.29 8.71C12.1963 8.61704 12.1219 8.50644 12.0711 8.38458C12.0203 8.26272 11.9942 8.13201 11.9942 8C11.9942 7.86799 12.0203 7.73728 12.0711 7.61542C12.1219 7.49356 12.1963 7.38296 12.29 7.29C12.383 7.19627 12.4936 7.12188 12.6154 7.07111C12.7373 7.02034 12.868 6.9942 13 6.9942C13.132 6.9942 13.2627 7.02034 13.3846 7.07111C13.5064 7.12188 13.617 7.19627 13.71 7.29L17.71 11.29C17.801 11.3851 17.8724 11.4972 17.92 11.62C18.02 11.8635 18.02 12.1365 17.92 12.38C17.8724 12.5028 17.801 12.6149 17.71 12.71ZM21 20C20.7348 20 20.4804 19.8946 20.2929 19.7071C20.1054 19.5196 20 19.2652 20 19V5C20 4.73478 20.1054 4.48043 20.2929 4.29289C20.4804 4.10536 20.7348 4 21 4C21.2652 4 21.5196 4.10536 21.7071 4.29289C21.8946 4.48043 22 4.73478 22 5V19C22 19.2652 21.8946 19.5196 21.7071 19.7071C21.5196 19.8946 21.2652 20 21 20Z" fill="#262A2E"/>
</svg>
