<svg width="16" height="16" viewBox="0 0 16 16" fill="none" xmlns="http://www.w3.org/2000/svg">
<path d="M7.51001 14.55C6.37668 14.55 5.32668 14.2667 4.36001 13.7C3.41834 13.1417 2.66834 12.3917 2.11001 11.45C1.54334 10.4834 1.26001 9.43338 1.26001 8.30005C1.26001 7.16672 1.54334 6.11672 2.11001 5.15005C2.66834 4.20838 3.41834 3.45838 4.36001 2.90005C5.32668 2.33338 6.37668 2.05005 7.51001 2.05005C8.64334 2.05005 9.69334 2.33338 10.66 2.90005C11.6017 3.45838 12.3517 4.20838 12.91 5.15005C13.4767 6.11672 13.76 7.16672 13.76 8.30005C13.76 9.43338 13.4767 10.4834 12.91 11.45C12.3517 12.3917 11.6017 13.1417 10.66 13.7C9.69334 14.2667 8.64334 14.55 7.51001 14.55ZM7.51001 13.3C8.41834 13.3 9.26001 13.0709 10.035 12.6125C10.785 12.1709 11.3808 11.575 11.8225 10.825C12.2808 10.05 12.51 9.20838 12.51 8.30005C12.51 7.39172 12.2808 6.55005 11.8225 5.77505C11.3808 5.02505 10.785 4.42922 10.035 3.98755C9.26001 3.52921 8.41834 3.30005 7.51001 3.30005C6.60168 3.30005 5.76001 3.52921 4.98501 3.98755C4.23501 4.42922 3.63918 5.02505 3.19751 5.77505C2.73918 6.55005 2.51001 7.39172 2.51001 8.30005C2.51001 9.20838 2.73918 10.05 3.19751 10.825C3.63918 11.575 4.23501 12.1709 4.98501 12.6125C5.76001 13.0709 6.60168 13.3 7.51001 13.3ZM8.13501 8.30005H10.635V9.55005H6.88501V5.17505H8.13501V8.30005Z" fill="#396CF0"/>
</svg>
