<svg width="20" height="20" viewBox="0 0 20 20" fill="none" xmlns="http://www.w3.org/2000/svg">
<g opacity="0.5">
<rect x="0.5" y="0.5" width="19" height="19" rx="1.5" transform="matrix(0 1 1 0 0 0)" stroke="#6F6F6F"/>
<path d="M10.0004 9.40831L7.0504 12.3583C6.89427 12.5135 6.68306 12.6006 6.4629 12.6006C6.24275 12.6006 6.03154 12.5135 5.8754 12.3583C5.7973 12.2808 5.7353 12.1887 5.693 12.0871C5.65069 11.9856 5.62891 11.8766 5.62891 11.7666C5.62891 11.6566 5.65069 11.5477 5.693 11.4462C5.7353 11.3446 5.7973 11.2524 5.8754 11.175L9.40874 7.64164C9.48621 7.56353 9.57837 7.50154 9.67992 7.45923C9.78147 7.41692 9.89039 7.39514 10.0004 7.39514C10.1104 7.39514 10.2193 7.41692 10.3209 7.45923C10.4224 7.50154 10.5146 7.56353 10.5921 7.64164L14.1671 11.175C14.2443 11.2528 14.3054 11.3452 14.3469 11.4467C14.3883 11.5482 14.4094 11.657 14.4087 11.7666C14.4094 11.8763 14.3883 11.985 14.3469 12.0866C14.3054 12.1881 14.2443 12.2804 14.1671 12.3583C14.0109 12.5135 13.7997 12.6006 13.5796 12.6006C13.3594 12.6006 13.1482 12.5135 12.9921 12.3583L10.0004 9.40831Z" fill="#6F6F6F"/>
</g>
</svg>
