<svg width="46" height="46" viewBox="0 0 46 46" fill="none" xmlns="http://www.w3.org/2000/svg">
<g filter="url(#filter0_d_1_3688)">
<rect x="5" y="2" width="36" height="36" rx="18" fill="#F0735A" fill-opacity="0.1" shape-rendering="crispEdges"/>
<rect x="5.5" y="2.5" width="35" height="35" rx="17.5" stroke="#F0735A" stroke-opacity="0.1" shape-rendering="crispEdges"/>
<path d="M27.9851 16.5H25.4951V15.87C25.4951 15.53 25.4101 15.2175 25.2401 14.9325C25.0701 14.6475 24.8426 14.42 24.5576 14.25C24.2726 14.08 23.9601 13.995 23.6201 13.995H22.3601C22.0201 13.995 21.7076 14.08 21.4226 14.25C21.1376 14.42 20.9101 14.6475 20.7401 14.9325C20.5701 15.2175 20.4851 15.53 20.4851 15.87V16.5H17.9951C17.8451 16.52 17.7176 16.59 17.6126 16.71C17.5076 16.83 17.4551 16.9675 17.4551 17.1225C17.4551 17.2775 17.5076 17.415 17.6126 17.535C17.7176 17.655 17.8451 17.725 17.9951 17.745H18.6101V24.63C18.6101 24.97 18.6951 25.2825 18.8651 25.5675C19.0351 25.8525 19.2626 26.08 19.5476 26.25C19.8326 26.42 20.1451 26.505 20.4851 26.505H25.4951C25.8351 26.505 26.1476 26.42 26.4326 26.25C26.7176 26.08 26.9451 25.8525 27.1151 25.5675C27.2851 25.2825 27.3701 24.97 27.3701 24.63V17.745H27.9851C28.1351 17.725 28.2626 17.655 28.3676 17.535C28.4726 17.415 28.5251 17.2775 28.5251 17.1225C28.5251 16.9675 28.4726 16.83 28.3676 16.71C28.2626 16.59 28.1351 16.52 27.9851 16.5ZM21.7451 15.87C21.7451 15.7 21.8051 15.555 21.9251 15.435C22.0451 15.315 22.1901 15.255 22.3601 15.255H23.6201C23.7901 15.255 23.9351 15.315 24.0551 15.435C24.1751 15.555 24.2351 15.7 24.2351 15.87V16.5H21.7451V15.87ZM26.1101 24.63C26.1101 24.8 26.0501 24.945 25.9301 25.065C25.8101 25.185 25.6651 25.245 25.4951 25.245H20.4851C20.3151 25.245 20.1701 25.185 20.0501 25.065C19.9301 24.945 19.8701 24.8 19.8701 24.63V17.745H26.1101V24.63Z" fill="#F0735A"/>
</g>
<defs>
<filter id="filter0_d_1_3688" x="0" y="0" width="46" height="46" filterUnits="userSpaceOnUse" color-interpolation-filters="sRGB">
<feFlood flood-opacity="0" result="BackgroundImageFix"/>
<feColorMatrix in="SourceAlpha" type="matrix" values="0 0 0 0 0 0 0 0 0 0 0 0 0 0 0 0 0 0 127 0" result="hardAlpha"/>
<feOffset dy="3"/>
<feGaussianBlur stdDeviation="2.5"/>
<feComposite in2="hardAlpha" operator="out"/>
<feColorMatrix type="matrix" values="0 0 0 0 0.941176 0 0 0 0 0.45098 0 0 0 0 0.352941 0 0 0 0.3 0"/>
<feBlend mode="normal" in2="BackgroundImageFix" result="effect1_dropShadow_1_3688"/>
<feBlend mode="normal" in="SourceGraphic" in2="effect1_dropShadow_1_3688" result="shape"/>
</filter>
</defs>
</svg>
