<svg width="47" height="47" viewBox="0 0 47 47" fill="none" xmlns="http://www.w3.org/2000/svg">
<g filter="url(#filter0_d_1_1492)">
<rect x="5.73035" y="2.01764" width="36" height="36" rx="18" fill="#53C797" fill-opacity="0.1" shape-rendering="crispEdges"/>
<rect x="6.23035" y="2.51764" width="35" height="35" rx="17.5" stroke="#53C797" stroke-opacity="0.1" shape-rendering="crispEdges"/>
<path d="M25.4192 18.2576L22.751 20.9426L21.7166 19.9226C21.6467 19.8226 21.5542 19.7476 21.4393 19.6976C21.3244 19.6476 21.2045 19.6351 21.0795 19.6601C20.9546 19.6851 20.8472 19.7426 20.7572 19.8326C20.6673 19.9226 20.6098 20.0276 20.5849 20.1476C20.5599 20.2676 20.5699 20.3876 20.6148 20.5076C20.6598 20.6276 20.7323 20.7226 20.8322 20.7926L22.3013 22.2776C22.4212 22.3976 22.5686 22.4576 22.7435 22.4576C22.9184 22.4576 23.0658 22.3976 23.1857 22.2776L26.3037 19.1426C26.4236 19.0226 26.4836 18.8751 26.4836 18.7001C26.4836 18.5251 26.4236 18.3776 26.3037 18.2576C26.1837 18.1376 26.0363 18.0776 25.8615 18.0776C25.6866 18.0776 25.5392 18.1376 25.4192 18.2576ZM23.7253 14.0126C22.5961 14.0126 21.5467 14.2976 20.5774 14.8676C19.628 15.4176 18.8785 16.1676 18.3288 17.1176C17.7592 18.0876 17.4744 19.1376 17.4744 20.2676C17.4744 21.3976 17.7592 22.4476 18.3288 23.4176C18.8785 24.3676 19.628 25.1176 20.5774 25.6676C21.5467 26.2376 22.5961 26.5226 23.7253 26.5226C24.8546 26.5226 25.9039 26.2376 26.8733 25.6676C27.8227 25.1176 28.5722 24.3676 29.1219 23.4176C29.6915 22.4476 29.9763 21.3976 29.9763 20.2676C29.9763 19.1376 29.6915 18.0876 29.1219 17.1176C28.5722 16.1676 27.8227 15.4176 26.8733 14.8676C25.9039 14.2976 24.8546 14.0126 23.7253 14.0126ZM23.7253 25.2626C22.8259 25.2626 21.9865 25.0376 21.207 24.5876C20.4574 24.1376 19.8578 23.5376 19.4081 22.7876C18.9584 22.0076 18.7336 21.1676 18.7336 20.2676C18.7336 19.3676 18.9584 18.5276 19.4081 17.7476C19.8578 16.9976 20.4574 16.3976 21.207 15.9476C21.9865 15.4976 22.8259 15.2726 23.7253 15.2726C24.6248 15.2726 25.4642 15.4976 26.2437 15.9476C26.9932 16.3976 27.5928 16.9976 28.0426 17.7476C28.4923 18.5276 28.7171 19.3676 28.7171 20.2676C28.7171 21.1676 28.4923 22.0076 28.0426 22.7876C27.5928 23.5376 26.9932 24.1376 26.2437 24.5876C25.4642 25.0376 24.6248 25.2626 23.7253 25.2626Z" fill="#53C797"/>
</g>
<defs>
<filter id="filter0_d_1_1492" x="0.730347" y="0.0176392" width="46" height="46" filterUnits="userSpaceOnUse" color-interpolation-filters="sRGB">
<feFlood flood-opacity="0" result="BackgroundImageFix"/>
<feColorMatrix in="SourceAlpha" type="matrix" values="0 0 0 0 0 0 0 0 0 0 0 0 0 0 0 0 0 0 127 0" result="hardAlpha"/>
<feOffset dy="3"/>
<feGaussianBlur stdDeviation="2.5"/>
<feComposite in2="hardAlpha" operator="out"/>
<feColorMatrix type="matrix" values="0 0 0 0 0.32549 0 0 0 0 0.780392 0 0 0 0 0.592157 0 0 0 0.3 0"/>
<feBlend mode="normal" in2="BackgroundImageFix" result="effect1_dropShadow_1_1492"/>
<feBlend mode="normal" in="SourceGraphic" in2="effect1_dropShadow_1_1492" result="shape"/>
</filter>
</defs>
</svg>
