<svg width="27" height="24" viewBox="0 0 27 24" fill="none" xmlns="http://www.w3.org/2000/svg">
<path d="M19.635 0.75C20.885 0.75 22.035 1.07083 23.085 1.7125C24.135 2.35417 24.96 3.23333 25.56 4.35C26.1933 5.51667 26.51 6.81667 26.51 8.25C26.51 10.1833 26.06 12.0417 25.16 13.825C24.3933 15.3417 23.3017 16.8 21.885 18.2C20.785 19.3 19.4767 20.3667 17.96 21.4C17.11 22 15.9933 22.7083 14.61 23.525L14.01 23.875L13.41 23.525C11.96 22.675 10.7933 21.9333 9.90999 21.3C8.32666 20.2 6.96833 19.0667 5.83499 17.9C4.40166 16.4167 3.31833 14.8667 2.58499 13.25H0.259995V10.75H1.78499C1.60166 9.93333 1.50999 9.1 1.50999 8.25C1.50999 6.83333 1.82666 5.53333 2.45999 4.35C3.05999 3.23333 3.88499 2.35417 4.93499 1.7125C5.98499 1.07083 7.13499 0.75 8.38499 0.75C9.46833 0.75 10.5433 1.00833 11.61 1.525C12.51 1.975 13.31 2.55 14.01 3.25C14.71 2.55 15.51 1.975 16.41 1.525C17.4767 1.00833 18.5517 0.75 19.635 0.75ZM19.635 3.25C18.9683 3.25 18.2933 3.40833 17.61 3.725C16.9267 4.04167 16.3183 4.475 15.785 5.025L14.01 6.775L12.235 5.025C11.7017 4.475 11.0933 4.04167 10.41 3.725C9.72666 3.40833 9.05166 3.25 8.38499 3.25C7.58499 3.25 6.85166 3.4625 6.18499 3.8875C5.51833 4.3125 4.98916 4.90833 4.59749 5.675C4.20583 6.44167 4.00999 7.3 4.00999 8.25C4.00999 9.1 4.11833 9.93333 4.33499 10.75H7.05999L9.63499 6.45L13.385 12.7L14.56 10.75H20.26V13.25H15.96L13.385 17.55L9.63499 11.3L8.45999 13.25H5.38499C6.35166 14.9167 7.82666 16.5417 9.80999 18.125C10.6933 18.825 11.7017 19.5333 12.835 20.25C13.2017 20.4833 13.5933 20.725 14.01 20.975C14.4267 20.725 14.8183 20.4833 15.185 20.25C16.3183 19.5333 17.3267 18.825 18.21 18.125C20.11 16.6083 21.5433 15.05 22.51 13.45C23.51 11.7833 24.01 10.05 24.01 8.25C24.01 7.28333 23.8183 6.42083 23.435 5.6625C23.0517 4.90417 22.5267 4.3125 21.86 3.8875C21.1933 3.4625 20.4517 3.25 19.635 3.25Z" fill="#396CF0"/>
</svg>
