<svg width="31" height="30" viewBox="0 0 31 30" fill="none" xmlns="http://www.w3.org/2000/svg">
<path d="M17.16 2.42501L21.835 4.22501L20.935 6.55001L19.76 6.10001L18.835 8.55001C19.8183 9.13335 20.6267 9.90001 21.26 10.85L23.635 9.80001L23.135 8.65001L25.41 7.62501L27.435 12.2L25.16 13.225L24.66 12.075L22.285 13.125C22.435 13.7417 22.51 14.3667 22.51 15C22.51 15.5 22.46 15.9917 22.36 16.475L24.785 17.425L25.235 16.25L27.585 17.15L25.785 21.825L23.46 20.925L23.885 19.75L21.46 18.825C20.8767 19.8083 20.11 20.6167 19.16 21.25L20.21 23.625L21.36 23.125L22.385 25.4L17.81 27.425L16.785 25.15L17.935 24.65L16.885 22.275C16.2683 22.425 15.6433 22.5 15.01 22.5C14.51 22.5 14.0183 22.45 13.535 22.35L12.585 24.775L13.76 25.225L12.86 27.575L8.185 25.775L9.085 23.45L10.26 23.875L11.185 21.45C10.2017 20.8667 9.39333 20.1 8.76 19.15L6.385 20.2L6.885 21.35L4.61 22.375L2.585 17.8L4.86 16.775L5.36 17.925L7.735 16.875C7.585 16.2583 7.51 15.6333 7.51 15C7.51 14.5 7.56 14.0083 7.66 13.525L5.235 12.575L4.785 13.75L2.435 12.85L4.235 8.17501L6.56 9.07501L6.11 10.25L8.56 11.175C9.14333 10.1917 9.91 9.38335 10.86 8.75001L9.81 6.37501L8.66 6.87501L7.635 4.60001L12.21 2.57501L13.235 4.85001L12.085 5.35001L13.135 7.72501C13.7517 7.57501 14.3767 7.50001 15.01 7.50001C15.51 7.50001 16.0017 7.55001 16.485 7.65001L17.435 5.22501L16.26 4.77501L17.16 2.42501ZM15.01 10C14.11 10 13.2767 10.225 12.51 10.675C11.7433 11.125 11.135 11.7333 10.685 12.5C10.235 13.2667 10.01 14.1 10.01 15C10.01 15.9 10.235 16.7333 10.685 17.5C11.135 18.2667 11.7433 18.875 12.51 19.325C13.2767 19.775 14.11 20 15.01 20C15.91 20 16.7433 19.775 17.51 19.325C18.2767 18.875 18.885 18.2667 19.335 17.5C19.785 16.7333 20.01 15.9 20.01 15C20.01 14.1 19.785 13.2667 19.335 12.5C18.885 11.7333 18.2767 11.125 17.51 10.675C16.7433 10.225 15.91 10 15.01 10ZM14.385 16.075C14.685 16.2583 14.8808 16.5167 14.9725 16.85C15.0642 17.1833 15.0225 17.5 14.8475 17.8C14.6725 18.1 14.4183 18.2917 14.085 18.375C13.7517 18.4583 13.435 18.4167 13.135 18.25C12.835 18.0833 12.6392 17.8333 12.5475 17.5C12.4558 17.1667 12.4975 16.85 12.6725 16.55C12.8475 16.25 13.1017 16.0542 13.435 15.9625C13.7683 15.8708 14.085 15.9083 14.385 16.075ZM17.51 13.75C17.86 13.75 18.1558 13.8708 18.3975 14.1125C18.6392 14.3542 18.76 14.65 18.76 15C18.76 15.35 18.6392 15.6458 18.3975 15.8875C18.1558 16.1292 17.86 16.25 17.51 16.25C17.16 16.25 16.8642 16.1292 16.6225 15.8875C16.3808 15.6458 16.26 15.35 16.26 15C16.26 14.65 16.3808 14.3542 16.6225 14.1125C16.8642 13.8708 17.16 13.75 17.51 13.75ZM14.835 12.2C15.0183 12.5 15.0642 12.8167 14.9725 13.15C14.8808 13.4833 14.685 13.7375 14.385 13.9125C14.085 14.0875 13.7683 14.1292 13.435 14.0375C13.1017 13.9458 12.8475 13.75 12.6725 13.45C12.4975 13.15 12.4558 12.8333 12.5475 12.5C12.6392 12.1667 12.835 11.9167 13.135 11.75C13.435 11.5833 13.7517 11.5417 14.085 11.625C14.4183 11.7083 14.6683 11.9 14.835 12.2Z" fill="#F1B561"/>
</svg>
