<svg width="26" height="26" viewBox="0 0 26 26" fill="none" xmlns="http://www.w3.org/2000/svg">
<path d="M13.01 0.5C15.2767 0.5 17.3767 1.06667 19.31 2.2C21.1933 3.31667 22.6933 4.81667 23.81 6.7C24.9433 8.63333 25.51 10.7333 25.51 13C25.51 15.2667 24.9433 17.3667 23.81 19.3C22.6933 21.1833 21.1933 22.6833 19.31 23.8C17.3767 24.9333 15.2767 25.5 13.01 25.5C10.7433 25.5 8.64333 24.9333 6.70999 23.8C4.82666 22.6833 3.32666 21.1833 2.20999 19.3C1.07666 17.3667 0.509995 15.2667 0.509995 13C0.509995 10.7333 1.07666 8.63333 2.20999 6.7C3.32666 4.81667 4.82666 3.31667 6.70999 2.2C8.64333 1.06667 10.7433 0.5 13.01 0.5ZM13.01 3C11.1933 3 9.50999 3.45833 7.95999 4.375C6.45999 5.25833 5.26833 6.45 4.38499 7.95C3.46833 9.5 3.00999 11.1833 3.00999 13C3.00999 14.8167 3.46833 16.5 4.38499 18.05C5.26833 19.55 6.45999 20.7417 7.95999 21.625C9.50999 22.5417 11.1933 23 13.01 23C14.8267 23 16.51 22.5417 18.06 21.625C19.56 20.7417 20.7517 19.55 21.635 18.05C22.5517 16.5 23.01 14.8167 23.01 13C23.01 11.1833 22.5517 9.5 21.635 7.95C20.7517 6.45 19.56 5.25833 18.06 4.375C16.51 3.45833 14.8267 3 13.01 3ZM13.01 6.75C14.36 6.75 15.5808 7.14583 16.6725 7.9375C17.7642 8.72917 18.5225 9.76667 18.9475 11.05C19.3725 12.3333 19.3767 13.6167 18.96 14.9C18.5433 16.1833 17.7933 17.225 16.71 18.025C15.6267 18.825 14.41 19.2333 13.06 19.25C11.71 19.2667 10.485 18.8833 9.38499 18.1C8.28499 17.3167 7.51833 16.2875 7.08499 15.0125C6.65166 13.7375 6.63499 12.45 7.03499 11.15C7.33499 11.8333 7.81416 12.3417 8.47249 12.675C9.13083 13.0083 9.82249 13.0958 10.5475 12.9375C11.2725 12.7792 11.8642 12.4125 12.3225 11.8375C12.7808 11.2625 13.01 10.6083 13.01 9.875C13.01 9.25833 12.8433 8.69167 12.51 8.175C12.1767 7.65833 11.7267 7.275 11.16 7.025C11.76 6.84167 12.3767 6.75 13.01 6.75Z" fill="#64C2F1"/>
</svg>
