<svg width="37" height="37" viewBox="0 0 37 37" fill="none" xmlns="http://www.w3.org/2000/svg">
<rect x="0.809998" y="0.830017" width="35" height="35" rx="4.5" fill="#396CF0"/>
<rect x="0.809998" y="0.830017" width="35" height="35" rx="4.5" stroke="#396CF0"/>
<path d="M18.9346 19.825H16.4312C16.2613 19.825 16.1139 19.8875 15.989 20.0125C15.8641 20.1375 15.8016 20.285 15.8016 20.455C15.8016 20.625 15.8641 20.7725 15.989 20.8975C16.1139 21.0225 16.2613 21.085 16.4312 21.085H18.9346C19.1045 21.085 19.2519 21.0225 19.3768 20.8975C19.5017 20.7725 19.5642 20.625 19.5642 20.455C19.5642 20.285 19.5017 20.1375 19.3768 20.0125C19.2519 19.8875 19.1045 19.825 18.9346 19.825ZM21.423 13.585H20.6884C20.5585 13.215 20.3337 12.9125 20.0139 12.6775C19.6941 12.4425 19.3343 12.325 18.9346 12.325H17.6754C17.2756 12.325 16.9159 12.4425 16.5961 12.6775C16.2763 12.9125 16.0514 13.215 15.9215 13.585H15.187C14.8472 13.585 14.5349 13.67 14.2501 13.84C13.9653 14.01 13.7379 14.2375 13.568 14.5225C13.3981 14.8075 13.3132 15.12 13.3132 15.46V22.96C13.3132 23.3 13.3981 23.6125 13.568 23.8975C13.7379 24.1825 13.9653 24.41 14.2501 24.58C14.5349 24.75 14.8472 24.835 15.187 24.835H21.423C21.7628 24.835 22.0751 24.75 22.3599 24.58C22.6447 24.41 22.872 24.1825 23.0419 23.8975C23.2118 23.6125 23.2968 23.3 23.2968 22.96V15.46C23.2968 15.12 23.2118 14.8075 23.0419 14.5225C22.872 14.2375 22.6447 14.01 22.3599 13.84C22.0751 13.67 21.7628 13.585 21.423 13.585ZM17.0608 14.2C17.0608 14.03 17.1207 13.885 17.2407 13.765C17.3606 13.645 17.5055 13.585 17.6754 13.585H18.9346C19.1045 13.585 19.2494 13.645 19.3693 13.765C19.4892 13.885 19.5492 14.03 19.5492 14.2V14.83H17.0608V14.2ZM22.0526 22.96C22.0526 23.13 21.9901 23.275 21.8652 23.395C21.7403 23.515 21.5929 23.575 21.423 23.575H15.187C15.0171 23.575 14.8697 23.515 14.7448 23.395C14.6199 23.275 14.5574 23.13 14.5574 22.96V15.46C14.5574 15.29 14.6199 15.1425 14.7448 15.0175C14.8697 14.8925 15.0171 14.83 15.187 14.83H15.8016V15.46C15.8016 15.63 15.8641 15.775 15.989 15.895C16.1139 16.015 16.2613 16.075 16.4312 16.075H20.1788C20.3487 16.075 20.4961 16.015 20.621 15.895C20.7459 15.775 20.8084 15.63 20.8084 15.46V14.83H21.423C21.5929 14.83 21.7403 14.8925 21.8652 15.0175C21.9901 15.1425 22.0526 15.29 22.0526 15.46V22.96ZM20.1788 17.335H16.4312C16.2813 17.355 16.1539 17.425 16.0489 17.545C15.944 17.665 15.8915 17.8025 15.8915 17.9575C15.8915 18.1125 15.944 18.25 16.0489 18.37C16.1539 18.49 16.2813 18.56 16.4312 18.58H20.1788C20.3287 18.56 20.4561 18.49 20.561 18.37C20.666 18.25 20.7184 18.1125 20.7184 17.9575C20.7184 17.8025 20.666 17.665 20.561 17.545C20.4561 17.425 20.3287 17.355 20.1788 17.335Z" fill="white"/>
</svg>
