<svg width="24" height="24" viewBox="0 0 24 24" fill="none" xmlns="http://www.w3.org/2000/svg">
<path d="M6.29 11.29L10.29 7.29C10.3832 7.19676 10.4939 7.1228 10.6158 7.07234C10.7376 7.02188 10.8681 6.99591 11 6.99591C11.1319 6.99591 11.2624 7.02188 11.3842 7.07234C11.5061 7.1228 11.6168 7.19676 11.71 7.29C11.8032 7.38324 11.8772 7.49393 11.9277 7.61575C11.9781 7.73757 12.0041 7.86814 12.0041 8C12.0041 8.13186 11.9781 8.26243 11.9277 8.38425C11.8772 8.50607 11.8032 8.61676 11.71 8.71L9.41 11H21C21.2652 11 21.5196 11.1054 21.7071 11.2929C21.8946 11.4804 22 11.7348 22 12C22 12.2652 21.8946 12.5196 21.7071 12.7071C21.5196 12.8946 21.2652 13 21 13H9.41L11.71 15.29C11.8037 15.383 11.8781 15.4936 11.9289 15.6154C11.9797 15.7373 12.0058 15.868 12.0058 16C12.0058 16.132 11.9797 16.2627 11.9289 16.3846C11.8781 16.5064 11.8037 16.617 11.71 16.71C11.617 16.8037 11.5064 16.8781 11.3846 16.9289C11.2627 16.9797 11.132 17.0058 11 17.0058C10.868 17.0058 10.7373 16.9797 10.6154 16.9289C10.4936 16.8781 10.383 16.8037 10.29 16.71L6.29 12.71C6.19896 12.6149 6.12759 12.5028 6.08 12.38C5.97998 12.1365 5.97998 11.8635 6.08 11.62C6.12759 11.4972 6.19896 11.3851 6.29 11.29ZM3 4C3.26522 4 3.51957 4.10536 3.70711 4.29289C3.89464 4.48043 4 4.73478 4 5V19C4 19.2652 3.89464 19.5196 3.70711 19.7071C3.51957 19.8946 3.26522 20 3 20C2.73478 20 2.48043 19.8946 2.29289 19.7071C2.10536 19.5196 2 19.2652 2 19V5C2 4.73478 2.10536 4.48043 2.29289 4.29289C2.48043 4.10536 2.73478 4 3 4Z" fill="#262A2E"/>
</svg>
