<svg width="31" height="30" viewBox="0 0 31 30" fill="none" xmlns="http://www.w3.org/2000/svg">
<path d="M16.51 2.825L20.56 9.875C20.7433 10.175 20.7892 10.4917 20.6975 10.825C20.6058 11.1583 20.41 11.4083 20.11 11.575L18.485 12.525L19.735 14.675L17.56 15.925L16.31 13.775L14.685 14.7C14.4017 14.8667 14.0933 14.9083 13.76 14.825C13.4267 14.7417 13.1683 14.55 12.985 14.25L10.685 10.275C9.83499 10.525 9.07666 10.9458 8.40999 11.5375C7.74333 12.1292 7.21833 12.8333 6.83499 13.65C6.45166 14.4667 6.25999 15.3333 6.25999 16.25C6.25999 17.0167 6.39333 17.7583 6.65999 18.475C7.67666 17.825 8.79333 17.5 10.01 17.5C11.0433 17.5 12.0058 17.7375 12.8975 18.2125C13.7892 18.6875 14.5267 19.325 15.11 20.125L24.71 14.6L25.96 16.75L16.135 22.45C16.2183 22.8667 16.26 23.2958 16.26 23.7375C16.26 24.1792 16.2183 24.6 16.135 25H26.26V27.5H5.00999C4.60999 26.9667 4.30166 26.3833 4.08499 25.75C3.86833 25.1167 3.75999 24.45 3.75999 23.75C3.75999 22.5167 4.09333 21.375 4.75999 20.325C4.09333 19.0583 3.75999 17.7 3.75999 16.25C3.75999 15.0167 4.00166 13.85 4.48499 12.75C4.96833 11.6667 5.63499 10.7167 6.48499 9.9C7.33499 9.08333 8.30999 8.475 9.40999 8.075L8.93499 7.2C8.58499 6.61667 8.49749 5.9875 8.67249 5.3125C8.84749 4.6375 9.23499 4.13333 9.83499 3.8L13.085 1.925C13.685 1.575 14.3183 1.49167 14.985 1.675C15.6517 1.85833 16.16 2.24167 16.51 2.825ZM10.01 20C9.32666 20 8.69749 20.1667 8.12249 20.5C7.54749 20.8333 7.09333 21.2875 6.75999 21.8625C6.42666 22.4375 6.25999 23.0667 6.25999 23.75C6.25999 24.1833 6.33499 24.6 6.48499 25H13.56C13.6933 24.6 13.76 24.1833 13.76 23.75C13.76 23.0667 13.5933 22.4375 13.26 21.8625C12.9267 21.2875 12.4725 20.8333 11.8975 20.5C11.3225 20.1667 10.6933 20 10.01 20ZM14.335 4.075L11.085 5.95L14.535 11.925L17.785 10.05L14.335 4.075Z" fill="#F0735A"/>
</svg>
