<svg width="24" height="25" viewBox="0 0 24 25" fill="none" xmlns="http://www.w3.org/2000/svg">
<path d="M12 2.5C10.0605 2.50369 8.16393 3.07131 6.54128 4.13374C4.91862 5.19617 3.63994 6.70754 2.86099 8.48377C2.08204 10.26 1.83643 12.2244 2.15408 14.1378C2.47173 16.0511 3.33893 17.8308 4.65005 19.26C5.58647 20.275 6.72299 21.0851 7.98799 21.6392C9.25298 22.1933 10.619 22.4793 12 22.4793C13.3811 22.4793 14.7471 22.1933 16.0121 21.6392C17.2771 21.0851 18.4136 20.275 19.35 19.26C20.6612 17.8308 21.5284 16.0511 21.846 14.1378C22.1637 12.2244 21.9181 10.26 21.1391 8.48377C20.3602 6.70754 19.0815 5.19617 17.4588 4.13374C15.8362 3.07131 13.9396 2.50369 12 2.5ZM12 20.5C9.92851 20.4969 7.93896 19.6903 6.45005 18.25C6.90209 17.1495 7.67108 16.2083 8.6593 15.5459C9.64752 14.8835 10.8104 14.5298 12 14.5298C13.1897 14.5298 14.3526 14.8835 15.3408 15.5459C16.329 16.2083 17.098 17.1495 17.55 18.25C16.0611 19.6903 14.0716 20.4969 12 20.5ZM10 10.5C10 10.1044 10.1173 9.71776 10.3371 9.38886C10.5569 9.05996 10.8692 8.80362 11.2347 8.65224C11.6001 8.50087 12.0023 8.46126 12.3902 8.53843C12.7782 8.6156 13.1346 8.80608 13.4143 9.08579C13.694 9.36549 13.8844 9.72186 13.9616 10.1098C14.0388 10.4978 13.9992 10.8999 13.8478 11.2654C13.6964 11.6308 13.4401 11.9432 13.1112 12.1629C12.7823 12.3827 12.3956 12.5 12 12.5C11.4696 12.5 10.9609 12.2893 10.5858 11.9142C10.2108 11.5391 10 11.0304 10 10.5ZM18.91 16.5C18.0166 14.9718 16.6415 13.783 15 13.12C15.5092 12.5427 15.841 11.8307 15.9555 11.0694C16.0701 10.3082 15.9625 9.53011 15.6458 8.8285C15.3291 8.12688 14.8166 7.53156 14.17 7.11397C13.5233 6.69637 12.7698 6.47425 12 6.47425C11.2303 6.47425 10.4768 6.69637 9.83014 7.11397C9.18346 7.53156 8.67102 8.12688 8.3543 8.8285C8.03758 9.53011 7.93004 10.3082 8.04458 11.0694C8.15912 11.8307 8.49088 12.5427 9.00005 13.12C7.35865 13.783 5.98352 14.9718 5.09005 16.5C4.37799 15.2871 4.00177 13.9065 4.00005 12.5C4.00005 10.3783 4.8429 8.34344 6.34319 6.84315C7.84349 5.34285 9.87832 4.5 12 4.5C14.1218 4.5 16.1566 5.34285 17.6569 6.84315C19.1572 8.34344 20 10.3783 20 12.5C19.9983 13.9065 19.6221 15.2871 18.91 16.5Z" fill="#EDF0EB"/>
</svg>
