<svg width="66" height="65" viewBox="0 0 66 65" fill="none" xmlns="http://www.w3.org/2000/svg">
<rect x="0.659973" width="65" height="65" rx="10" fill="#396CF0" fill-opacity="0.05"/>
<path d="M28.78 39.24H25.54L25.93 38.88C26.13 38.62 26.22 38.335 26.2 38.025C26.18 37.715 26.055 37.445 25.825 37.215C25.595 36.985 25.325 36.86 25.015 36.84C24.705 36.82 24.42 36.91 24.16 37.11L21.64 39.63C21.4 39.87 21.28 40.16 21.28 40.5C21.28 40.84 21.4 41.13 21.64 41.37L24.16 43.89C24.42 44.09 24.705 44.18 25.015 44.16C25.325 44.14 25.595 44.015 25.825 43.785C26.055 43.555 26.18 43.285 26.2 42.975C26.22 42.665 26.13 42.38 25.93 42.12L25.54 41.76H28.78C29.12 41.76 29.415 41.635 29.665 41.385C29.915 41.135 30.04 40.84 30.04 40.5C30.04 40.16 29.915 39.865 29.665 39.615C29.415 39.365 29.12 39.24 28.78 39.24ZM44.68 39.63L42.16 37.11C41.9 36.91 41.615 36.82 41.305 36.84C40.995 36.86 40.725 36.985 40.495 37.215C40.265 37.445 40.14 37.715 40.12 38.025C40.1 38.335 40.19 38.62 40.39 38.88L40.78 39.24H37.54C37.2 39.24 36.905 39.365 36.655 39.615C36.405 39.865 36.28 40.16 36.28 40.5C36.28 40.84 36.405 41.135 36.655 41.385C36.905 41.635 37.2 41.76 37.54 41.76H40.78L40.39 42.12C40.19 42.28 40.05 42.47 39.97 42.69C39.89 42.91 39.88 43.14 39.94 43.38C40 43.62 40.115 43.825 40.285 43.995C40.455 44.165 40.66 44.28 40.9 44.34C41.14 44.4 41.37 44.39 41.59 44.31C41.81 44.23 42 44.09 42.16 43.89L44.68 41.37C44.92 41.13 45.04 40.84 45.04 40.5C45.04 40.16 44.92 39.87 44.68 39.63ZM43.96 30.21C44.3 29.81 44.565 29.365 44.755 28.875C44.945 28.385 45.04 27.88 45.04 27.36C45.04 26.56 44.845 25.825 44.455 25.155C44.065 24.485 43.535 23.955 42.865 23.565C42.195 23.175 41.46 22.98 40.66 22.98C39.86 22.98 39.125 23.175 38.455 23.565C37.785 23.955 37.255 24.485 36.865 25.155C36.475 25.825 36.28 26.56 36.28 27.36C36.28 27.88 36.375 28.385 36.565 28.875C36.755 29.365 37.02 29.81 37.36 30.21C36.44 30.77 35.72 31.52 35.2 32.46C34.68 33.4 34.42 34.41 34.42 35.49C34.46 35.79 34.6 36.045 34.84 36.255C35.08 36.465 35.355 36.57 35.665 36.57C35.975 36.57 36.25 36.465 36.49 36.255C36.73 36.045 36.87 35.79 36.91 35.49C36.91 34.81 37.08 34.185 37.42 33.615C37.76 33.045 38.215 32.59 38.785 32.25C39.355 31.91 39.98 31.74 40.66 31.74C41.34 31.74 41.965 31.91 42.535 32.25C43.105 32.59 43.56 33.045 43.9 33.615C44.24 34.185 44.41 34.81 44.41 35.49C44.45 35.79 44.59 36.045 44.83 36.255C45.07 36.465 45.345 36.57 45.655 36.57C45.965 36.57 46.24 36.465 46.48 36.255C46.72 36.045 46.86 35.79 46.9 35.49C46.9 34.41 46.64 33.4 46.12 32.46C45.6 31.52 44.88 30.77 43.96 30.21ZM40.66 29.25C40.14 29.25 39.695 29.065 39.325 28.695C38.955 28.325 38.77 27.88 38.77 27.36C38.77 26.84 38.955 26.395 39.325 26.025C39.695 25.655 40.14 25.47 40.66 25.47C41.18 25.47 41.625 25.655 41.995 26.025C42.365 26.395 42.55 26.84 42.55 27.36C42.55 27.88 42.365 28.325 41.995 28.695C41.625 29.065 41.18 29.25 40.66 29.25ZM28.96 30.21C29.3 29.81 29.565 29.365 29.755 28.875C29.945 28.385 30.04 27.88 30.04 27.36C30.04 26.56 29.845 25.825 29.455 25.155C29.065 24.485 28.535 23.955 27.865 23.565C27.195 23.175 26.46 22.98 25.66 22.98C24.86 22.98 24.125 23.175 23.455 23.565C22.785 23.955 22.255 24.485 21.865 25.155C21.475 25.825 21.28 26.56 21.28 27.36C21.28 27.88 21.375 28.385 21.565 28.875C21.755 29.365 22.02 29.81 22.36 30.21C21.44 30.77 20.72 31.52 20.2 32.46C19.68 33.4 19.42 34.41 19.42 35.49C19.46 35.79 19.6 36.045 19.84 36.255C20.08 36.465 20.355 36.57 20.665 36.57C20.975 36.57 21.25 36.465 21.49 36.255C21.73 36.045 21.87 35.79 21.91 35.49C21.91 34.81 22.08 34.185 22.42 33.615C22.76 33.045 23.215 32.59 23.785 32.25C24.355 31.91 24.98 31.74 25.66 31.74C26.34 31.74 26.965 31.91 27.535 32.25C28.105 32.59 28.56 33.045 28.9 33.615C29.24 34.185 29.41 34.81 29.41 35.49C29.45 35.79 29.59 36.045 29.83 36.255C30.07 36.465 30.345 36.57 30.655 36.57C30.965 36.57 31.24 36.465 31.48 36.255C31.72 36.045 31.86 35.79 31.9 35.49C31.9 34.41 31.64 33.4 31.12 32.46C30.6 31.52 29.88 30.77 28.96 30.21ZM25.66 29.25C25.14 29.25 24.695 29.065 24.325 28.695C23.955 28.325 23.77 27.88 23.77 27.36C23.77 26.84 23.955 26.395 24.325 26.025C24.695 25.655 25.14 25.47 25.66 25.47C26.18 25.47 26.625 25.655 26.995 26.025C27.365 26.395 27.55 26.84 27.55 27.36C27.55 27.88 27.365 28.325 26.995 28.695C26.625 29.065 26.18 29.25 25.66 29.25Z" fill="#396CF0"/>
</svg>
